<?xml version="1.0" encoding="utf-8"?>
<svg version="1.1" xmlns:xlink="http://www.w3.org/1999/xlink" width="24px" height="22px" xmlns="http://www.w3.org/2000/svg">
  <g transform="matrix(1 0 0 1 -536 -126 )">
    <path d="M 548 126  C 554.72 126  560 130.84  560 137  C 560 143.16  554.72 148  548 148  C 541.28 148  536 143.16  536 137  C 536 130.84  541.28 126  548 126  Z " fill-rule="nonzero" fill="#d9001b" stroke="none" />
    <path d="M 548 126.5  C 554.44 126.5  559.5 131.12  559.5 137  C 559.5 142.88  554.44 147.5  548 147.5  C 541.56 147.5  536.5 142.88  536.5 137  C 536.5 131.12  541.56 126.5  548 126.5  Z " stroke-width="1" stroke="#797979" fill="none" />
  </g>
</svg>