<?xml version="1.0" encoding="utf-8"?>
<svg version="1.1" xmlns:xlink="http://www.w3.org/1999/xlink" width="26px" height="20px" xmlns="http://www.w3.org/2000/svg">
  <g transform="matrix(1 0 0 1 -336 -126 )">
    <path d="M 349 126  C 356.28 126  362 130.4  362 136  C 362 141.6  356.28 146  349 146  C 341.72 146  336 141.6  336 136  C 336 130.4  341.72 126  349 126  Z " fill-rule="nonzero" fill="#d9001b" stroke="none" />
    <path d="M 349 126.5  C 356 126.5  361.5 130.68  361.5 136  C 361.5 141.32  356 145.5  349 145.5  C 342 145.5  336.5 141.32  336.5 136  C 336.5 130.68  342 126.5  349 126.5  Z " stroke-width="1" stroke="#797979" fill="none" />
  </g>
</svg>