<?xml version="1.0" encoding="utf-8"?>
<svg version="1.1" xmlns:xlink="http://www.w3.org/1999/xlink" width="32px" height="34px" xmlns="http://www.w3.org/2000/svg">
  <g transform="matrix(1 0 0 1 -24 -24 )">
    <path d="M 24.0833333333333 1.29017857142857  L 30.5833333333333 7.20982142857143  C 30.9722222222222 7.56398809523809  31.3055555555556 8.04464285714286  31.5833333333333 8.65178571428571  C 31.8611111111111 9.25892857142857  32 9.81547619047619  32 10.3214285714286  L 32 32.1785714285714  C 32 32.6845238095238  31.8055555555556 33.1145833333333  31.4166666666667 33.46875  C 31.0277777777778 33.8229166666667  30.5555555555556 34  30 34  L 2 34  C 1.44444444444444 34  0.972222222222222 33.8229166666667  0.583333333333333 33.46875  C 0.194444444444444 33.1145833333333  0 32.6845238095238  0 32.1785714285714  L 0 1.82142857142857  C 0 1.31547619047619  0.194444444444444 0.885416666666665  0.583333333333333 0.53125  C 0.972222222222222 0.177083333333335  1.44444444444444 0  2 0  L 20.6666666666667 0  C 21.2222222222222 0  21.8333333333333 0.126488095238097  22.5 0.379464285714286  C 23.1666666666667 0.632440476190476  23.6944444444444 0.936011904761903  24.0833333333333 1.29017857142857  Z M 22.1875 2.99776785714286  C 22.0208333333333 2.84598214285714  21.7361111111111 2.70684523809523  21.3333333333333 2.58035714285714  L 21.3333333333333 9.71428571428571  L 29.1666666666667 9.71428571428571  C 29.0277777777778 9.34747023809523  28.875 9.08816964285714  28.7083333333333 8.93638392857143  L 22.1875 2.99776785714286  Z M 3 31  L 29 31  L 29 12.1428571428571  L 20.6666666666667 12.1428571428571  C 20.1111111111111 12.1428571428571  19.6388888888889 11.9657738095238  19.25 11.6116071428571  C 18.8611111111111 11.2574404761905  18.6666666666667 10.8273809523809  18.6666666666667 10.3214285714286  L 18.6666666666667 3  L 3 3  L 3 31  Z M 11.1041666666667 14.5714285714286  L 4.85416666666667 14.5714285714286  L 4.85416666666667 16.6015625  L 6.3125 16.6015625  L 9.72916666666667 29.1428571428571  L 13.0416666666667 29.1428571428571  L 15.7083333333333 19.9408482142857  C 15.8055555555556 19.6878720238095  15.875 19.3969494047619  15.9166666666667 19.0680803571429  C 15.9444444444444 18.8656994047619  15.9583333333333 18.7139136904762  15.9583333333333 18.6127232142857  L 16.0416666666667 18.6127232142857  L 16.1041666666667 19.0680803571429  C 16.1180555555556 19.1060267857143  16.1423611111111 19.2325148809524  16.1770833333333 19.4475446428571  C 16.2118055555556 19.6625744047619  16.25 19.8270089285714  16.2916666666667 19.9408482142857  L 18.9583333333333 29.1428571428571  L 22.2708333333333 29.1428571428571  L 25.6875 16.6015625  L 27.1458333333333 16.6015625  L 27.1458333333333 14.5714285714286  L 20.8958333333333 14.5714285714286  L 20.8958333333333 16.6015625  L 22.7708333333333 16.6015625  L 20.7083333333333 24.9118303571429  C 20.6388888888889 25.164806547619  20.5902777777778 25.4557291666667  20.5625 25.7845982142857  L 20.5208333333333 26.1830357142857  L 20.4375 26.1830357142857  C 20.4375 26.1450892857143  20.4340277777778 26.1039806547619  20.4270833333333 26.0597098214286  C 20.4201388888889 26.0154389880952  20.4097222222222 25.96484375  20.3958333333333 25.9079241071429  C 20.3819444444444 25.8510044642857  20.375 25.8098958333333  20.375 25.7845982142857  C 20.3611111111111 25.7213541666667  20.3333333333333 25.5885416666667  20.2916666666667 25.3861607142857  C 20.25 25.1837797619048  20.2152777777778 25.0256696428571  20.1875 24.9118303571429  L 17.1875 14.5714285714286  L 14.8125 14.5714285714286  L 11.8125 24.9118303571429  C 11.7847222222222 25.0256696428571  11.7534722222222 25.1806175595238  11.71875 25.3766741071429  C 11.6840277777778 25.5727306547619  11.6597222222222 25.7087053571429  11.6458333333333 25.7845982142857  L 11.5625 26.1830357142857  L 11.4791666666667 26.1830357142857  L 11.4375 25.7845982142857  C 11.4097222222222 25.4557291666667  11.3611111111111 25.164806547619  11.2916666666667 24.9118303571429  L 9.22916666666667 16.6015625  L 11.1041666666667 16.6015625  L 11.1041666666667 14.5714285714286  Z " fill-rule="nonzero" fill="#000000" stroke="none" transform="matrix(1 0 0 1 24 24 )" />
  </g>
</svg>