<?xml version="1.0" encoding="utf-8"?>
<svg version="1.1" xmlns:xlink="http://www.w3.org/1999/xlink" width="36px" height="48px" xmlns="http://www.w3.org/2000/svg">
  <g transform="matrix(1 0 0 1 -15 -28 )">
    <path d="M 27.09375 1.82142857142857  L 34.40625 10.1785714285714  C 34.84375 10.6785714285714  35.21875 11.3571428571429  35.53125 12.2142857142857  C 35.84375 13.0714285714286  36 13.8571428571429  36 14.5714285714286  L 36 45.4285714285714  C 36 46.1428571428571  35.78125 46.75  35.34375 47.25  C 34.90625 47.75  34.375 48  33.75 48  L 2.25 48  C 1.625 48  1.09375 47.75  0.65625 47.25  C 0.21875 46.75  0 46.1428571428571  0 45.4285714285714  L 0 2.57142857142857  C 0 1.85714285714286  0.21875 1.25  0.65625 0.75  C 1.09375 0.250000000000002  1.625 0  2.25 0  L 23.25 0  C 23.875 0  24.5625 0.178571428571431  25.3125 0.535714285714286  C 26.0625 0.892857142857142  26.65625 1.32142857142857  27.09375 1.82142857142857  Z M 24.9609375 4.23214285714286  C 24.7734375 4.01785714285714  24.453125 3.82142857142857  24 3.64285714285714  L 24 13.7142857142857  L 32.8125 13.7142857142857  C 32.65625 13.1964285714286  32.484375 12.8303571428571  32.296875 12.6160714285714  L 24.9609375 4.23214285714286  Z M 3 44  L 33 44  L 33 17.1428571428571  L 23.25 17.1428571428571  C 22.625 17.1428571428571  22.09375 16.8928571428571  21.65625 16.3928571428571  C 21.21875 15.8928571428571  21 15.2857142857143  21 14.5714285714286  L 21 4  L 3 4  L 3 44  Z M 12.4921875 20.5714285714286  L 5.4609375 20.5714285714286  L 5.4609375 23.4375  L 7.1015625 23.4375  L 10.9453125 41.1428571428571  L 14.671875 41.1428571428571  L 17.671875 28.1517857142857  C 17.78125 27.7946428571429  17.859375 27.3839285714286  17.90625 26.9196428571429  C 17.9375 26.6339285714286  17.953125 26.4196428571429  17.953125 26.2767857142857  L 18.046875 26.2767857142857  L 18.1171875 26.9196428571429  C 18.1328125 26.9732142857143  18.16015625 27.1517857142857  18.19921875 27.4553571428571  C 18.23828125 27.7589285714286  18.28125 27.9910714285714  18.328125 28.1517857142857  L 21.328125 41.1428571428571  L 25.0546875 41.1428571428571  L 28.8984375 23.4375  L 30.5390625 23.4375  L 30.5390625 20.5714285714286  L 23.5078125 20.5714285714286  L 23.5078125 23.4375  L 25.6171875 23.4375  L 23.296875 35.1696428571429  C 23.21875 35.5267857142857  23.1640625 35.9375  23.1328125 36.4017857142857  L 23.0859375 36.9642857142857  L 22.9921875 36.9642857142857  C 22.9921875 36.9107142857143  22.98828125 36.8526785714286  22.98046875 36.7901785714286  C 22.97265625 36.7276785714286  22.9609375 36.65625  22.9453125 36.5758928571429  C 22.9296875 36.4955357142857  22.921875 36.4375  22.921875 36.4017857142857  C 22.90625 36.3125  22.875 36.125  22.828125 35.8392857142857  C 22.78125 35.5535714285714  22.7421875 35.3303571428571  22.7109375 35.1696428571429  L 19.3359375 20.5714285714286  L 16.6640625 20.5714285714286  L 13.2890625 35.1696428571429  C 13.2578125 35.3303571428571  13.22265625 35.5491071428571  13.18359375 35.8258928571429  C 13.14453125 36.1026785714286  13.1171875 36.2946428571429  13.1015625 36.4017857142857  L 13.0078125 36.9642857142857  L 12.9140625 36.9642857142857  L 12.8671875 36.4017857142857  C 12.8359375 35.9375  12.78125 35.5267857142857  12.703125 35.1696428571429  L 10.3828125 23.4375  L 12.4921875 23.4375  L 12.4921875 20.5714285714286  Z " fill-rule="nonzero" fill="#000000" stroke="none" transform="matrix(1 0 0 1 15 28 )" />
  </g>
</svg>