<?xml version="1.0" encoding="utf-8"?>
<svg version="1.1" xmlns:xlink="http://www.w3.org/1999/xlink" width="32px" height="42px" xmlns="http://www.w3.org/2000/svg">
  <g transform="matrix(1 0 0 1 -24 -127 )">
    <path d="M 24.0833333333333 1.59375  L 30.5833333333333 8.90625  C 30.9722222222222 9.34375  31.3055555555556 9.9375  31.5833333333333 10.6875  C 31.8611111111111 11.4375  32 12.125  32 12.75  L 32 39.75  C 32 40.375  31.8055555555556 40.90625  31.4166666666667 41.34375  C 31.0277777777778 41.78125  30.5555555555556 42  30 42  L 2 42  C 1.44444444444444 42  0.972222222222222 41.78125  0.583333333333333 41.34375  C 0.194444444444444 40.90625  0 40.375  0 39.75  L 0 2.25  C 0 1.625  0.194444444444444 1.09375  0.583333333333333 0.65625  C 0.972222222222222 0.218750000000002  1.44444444444444 0  2 0  L 20.6666666666667 0  C 21.2222222222222 0  21.8333333333333 0.156250000000002  22.5 0.468750000000001  C 23.1666666666667 0.78125  23.6944444444444 1.15625  24.0833333333333 1.59375  Z M 22.1875 3.703125  C 22.0208333333333 3.515625  21.7361111111111 3.34375  21.3333333333333 3.1875  L 21.3333333333333 12  L 29.1666666666667 12  C 29.0277777777778 11.546875  28.875 11.2265625  28.7083333333333 11.0390625  L 22.1875 3.703125  Z M 3 39  L 29 39  L 29 15  L 20.6666666666667 15  C 20.1111111111111 15  19.6388888888889 14.78125  19.25 14.34375  C 18.8611111111111 13.90625  18.6666666666667 13.375  18.6666666666667 12.75  L 18.6666666666667 3  L 3 3  L 3 39  Z M 11.1041666666667 18  L 4.85416666666667 18  L 4.85416666666667 20.5078125  L 6.3125 20.5078125  L 9.72916666666667 36  L 13.0416666666667 36  L 15.7083333333333 24.6328125  C 15.8055555555556 24.3203125  15.875 23.9609375  15.9166666666667 23.5546875  C 15.9444444444444 23.3046875  15.9583333333333 23.1171875  15.9583333333333 22.9921875  L 16.0416666666667 22.9921875  L 16.1041666666667 23.5546875  C 16.1180555555556 23.6015625  16.1423611111111 23.7578125  16.1770833333333 24.0234375  C 16.2118055555556 24.2890625  16.25 24.4921875  16.2916666666667 24.6328125  L 18.9583333333333 36  L 22.2708333333333 36  L 25.6875 20.5078125  L 27.1458333333333 20.5078125  L 27.1458333333333 18  L 20.8958333333333 18  L 20.8958333333333 20.5078125  L 22.7708333333333 20.5078125  L 20.7083333333333 30.7734375  C 20.6388888888889 31.0859375  20.5902777777778 31.4453125  20.5625 31.8515625  L 20.5208333333333 32.34375  L 20.4375 32.34375  C 20.4375 32.296875  20.4340277777778 32.24609375  20.4270833333333 32.19140625  C 20.4201388888889 32.13671875  20.4097222222222 32.07421875  20.3958333333333 32.00390625  C 20.3819444444444 31.93359375  20.375 31.8828125  20.375 31.8515625  C 20.3611111111111 31.7734375  20.3333333333333 31.609375  20.2916666666667 31.359375  C 20.25 31.109375  20.2152777777778 30.9140625  20.1875 30.7734375  L 17.1875 18  L 14.8125 18  L 11.8125 30.7734375  C 11.7847222222222 30.9140625  11.7534722222222 31.10546875  11.71875 31.34765625  C 11.6840277777778 31.58984375  11.6597222222222 31.7578125  11.6458333333333 31.8515625  L 11.5625 32.34375  L 11.4791666666667 32.34375  L 11.4375 31.8515625  C 11.4097222222222 31.4453125  11.3611111111111 31.0859375  11.2916666666667 30.7734375  L 9.22916666666667 20.5078125  L 11.1041666666667 20.5078125  L 11.1041666666667 18  Z " fill-rule="nonzero" fill="#000000" stroke="none" transform="matrix(1 0 0 1 24 127 )" />
  </g>
</svg>