<?xml version="1.0" encoding="utf-8"?>
<svg version="1.1" xmlns:xlink="http://www.w3.org/1999/xlink" width="28px" height="43px" xmlns="http://www.w3.org/2000/svg">
  <g transform="matrix(1 0 0 1 -615 -458 )">
    <path d="M 21.0729166666667 1.63169642857143  L 26.7604166666667 9.11830357142857  C 27.1006944444444 9.56622023809524  27.3923611111111 10.1741071428571  27.6354166666667 10.9419642857143  C 27.8784722222222 11.7098214285714  28 12.4136904761905  28 13.0535714285714  L 28 40.6964285714286  C 28 41.3363095238095  27.8298611111111 41.8802083333333  27.4895833333333 42.328125  C 27.1493055555556 42.7760416666667  26.7361111111111 43  26.25 43  L 1.75 43  C 1.26388888888889 43  0.850694444444445 42.7760416666667  0.510416666666667 42.328125  C 0.170138888888889 41.8802083333333  0 41.3363095238095  0 40.6964285714286  L 0 2.30357142857143  C 0 1.66369047619047  0.170138888888889 1.11979166666667  0.510416666666667 0.671875  C 0.850694444444445 0.223958333333335  1.26388888888889 0  1.75 0  L 18.0833333333333 0  C 18.5694444444444 0  19.1041666666667 0.15997023809524  19.6875 0.479910714285715  C 20.2708333333333 0.79985119047619  20.7326388888889 1.18377976190476  21.0729166666667 1.63169642857143  Z M 19.4140625 3.79129464285715  C 19.2682291666667 3.59933035714286  19.0190972222222 3.42336309523809  18.6666666666667 3.26339285714286  L 18.6666666666667 12.2857142857143  L 25.5208333333333 12.2857142857143  C 25.3993055555556 11.8218005952381  25.265625 11.4938616071429  25.1197916666667 11.3018973214286  L 19.4140625 3.79129464285715  Z M 2.33333333333333 40  L 25.6666666666667 40  L 25.6666666666667 15.3571428571429  L 18.0833333333333 15.3571428571429  C 17.5972222222222 15.3571428571429  17.1840277777778 15.1331845238095  16.84375 14.6852678571429  C 16.5034722222222 14.2373511904762  16.3333333333333 13.6934523809524  16.3333333333333 13.0535714285714  L 16.3333333333333 3  L 2.33333333333333 3  L 2.33333333333333 40  Z M 9.71614583333333 18.4285714285714  L 4.24739583333333 18.4285714285714  L 4.24739583333333 20.99609375  L 5.5234375 20.99609375  L 8.51302083333333 36.8571428571429  L 11.4114583333333 36.8571428571429  L 13.7447916666667 25.2193080357143  C 13.8298611111111 24.8993675595238  13.890625 24.5314360119048  13.9270833333333 24.1155133928571  C 13.9513888888889 23.8595610119048  13.9635416666667 23.6675967261905  13.9635416666667 23.5396205357143  L 14.0364583333333 23.5396205357143  L 14.0911458333333 24.1155133928571  C 14.1032986111111 24.1635044642857  14.1245659722222 24.3234747023809  14.1549479166667 24.5954241071429  C 14.1853298611111 24.8673735119048  14.21875 25.0753348214286  14.2552083333333 25.2193080357143  L 16.5885416666667 36.8571428571429  L 19.4869791666667 36.8571428571429  L 22.4765625 20.99609375  L 23.7526041666667 20.99609375  L 23.7526041666667 18.4285714285714  L 18.2838541666667 18.4285714285714  L 18.2838541666667 20.99609375  L 19.9244791666667 20.99609375  L 18.1197916666667 31.5061383928571  C 18.0590277777778 31.8260788690476  18.0164930555556 32.1940104166667  17.9921875 32.6099330357143  L 17.9557291666667 33.1138392857143  L 17.8828125 33.1138392857143  C 17.8828125 33.0658482142857  17.8797743055556 33.0138578869048  17.8736979166667 32.9578683035714  C 17.8676215277778 32.9018787202381  17.8585069444444 32.837890625  17.8463541666667 32.7659040178571  C 17.8342013888889 32.6939174107143  17.828125 32.6419270833333  17.828125 32.6099330357143  C 17.8159722222222 32.5299479166667  17.7916666666667 32.3619791666667  17.7552083333333 32.1060267857143  C 17.71875 31.8500744047619  17.6883680555556 31.6501116071429  17.6640625 31.5061383928571  L 15.0390625 18.4285714285714  L 12.9609375 18.4285714285714  L 10.3359375 31.5061383928571  C 10.3116319444444 31.6501116071429  10.2842881944444 31.8460751488095  10.25390625 32.0940290178571  C 10.2235243055556 32.3419828869048  10.2022569444444 32.5139508928571  10.1901041666667 32.6099330357143  L 10.1171875 33.1138392857143  L 10.0442708333333 33.1138392857143  L 10.0078125 32.6099330357143  C 9.98350694444444 32.1940104166667  9.94097222222222 31.8260788690476  9.88020833333333 31.5061383928571  L 8.07552083333333 20.99609375  L 9.71614583333333 20.99609375  L 9.71614583333333 18.4285714285714  Z " fill-rule="nonzero" fill="#000000" stroke="none" transform="matrix(1 0 0 1 615 458 )" />
  </g>
</svg>