<?xml version="1.0" encoding="utf-8"?>
<svg version="1.1" xmlns:xlink="http://www.w3.org/1999/xlink" width="31px" height="31px" xmlns="http://www.w3.org/2000/svg">
  <g transform="matrix(1 0 0 1 -393 -348 )">
    <path d="M 408.5 348  C 417.18 348  424 354.82  424 363.5  C 424 372.18  417.18 379  408.5 379  C 399.82 379  393 372.18  393 363.5  C 393 354.82  399.82 348  408.5 348  Z " fill-rule="nonzero" fill="#ffffff" stroke="none" />
    <path d="M 408.5 348.5  C 416.9 348.5  423.5 355.1  423.5 363.5  C 423.5 371.9  416.9 378.5  408.5 378.5  C 400.1 378.5  393.5 371.9  393.5 363.5  C 393.5 355.1  400.1 348.5  408.5 348.5  Z " stroke-width="1" stroke="#797979" fill="none" />
  </g>
</svg>