<?xml version="1.0" encoding="utf-8"?>
<svg version="1.1" xmlns:xlink="http://www.w3.org/1999/xlink" width="30px" height="27px" xmlns="http://www.w3.org/2000/svg">
  <g transform="matrix(1 0 0 1 -393 -313 )">
    <path d="M 408 313  C 416.4 313  423 318.94  423 326.5  C 423 334.06  416.4 340  408 340  C 399.6 340  393 334.06  393 326.5  C 393 318.94  399.6 313  408 313  Z " fill-rule="nonzero" fill="#ffffff" stroke="none" />
    <path d="M 408 313.5  C 416.12 313.5  422.5 319.22  422.5 326.5  C 422.5 333.78  416.12 339.5  408 339.5  C 399.88 339.5  393.5 333.78  393.5 326.5  C 393.5 319.22  399.88 313.5  408 313.5  Z " stroke-width="1" stroke="#797979" fill="none" />
  </g>
</svg>