<?xml version="1.0" encoding="utf-8"?>
<svg version="1.1" xmlns:xlink="http://www.w3.org/1999/xlink" width="26px" height="27px" xmlns="http://www.w3.org/2000/svg">
  <g transform="matrix(1 0 0 1 -1121 -339 )">
    <path d="M 19.5677083333333 1.02455357142857  L 24.8489583333333 5.72544642857143  C 25.1649305555556 6.00669642857143  25.4357638888889 6.38839285714286  25.6614583333333 6.87053571428571  C 25.8871527777778 7.35267857142857  26 7.79464285714286  26 8.19642857142857  L 26 25.5535714285714  C 26 25.9553571428571  25.8420138888889 26.296875  25.5260416666667 26.578125  C 25.2100694444444 26.859375  24.8263888888889 27  24.375 27  L 1.625 27  C 1.17361111111111 27  0.789930555555556 26.859375  0.473958333333333 26.578125  C 0.157986111111111 26.296875  0 25.9553571428571  0 25.5535714285714  L 0 1.44642857142857  C 0 1.04464285714286  0.157986111111111 0.703124999999999  0.473958333333333 0.421875  C 0.789930555555556 0.140625000000001  1.17361111111111 0  1.625 0  L 16.7916666666667 0  C 17.2430555555556 0  17.7395833333333 0.10044642857143  18.28125 0.301339285714286  C 18.8229166666667 0.502232142857143  19.2517361111111 0.74330357142857  19.5677083333333 1.02455357142857  Z M 18.02734375 2.38058035714286  C 17.8919270833333 2.26004464285714  17.6605902777778 2.14955357142857  17.3333333333333 2.04910714285714  L 17.3333333333333 7.71428571428571  L 23.6979166666667 7.71428571428571  C 23.5850694444444 7.42299107142857  23.4609375 7.21707589285714  23.3255208333333 7.09654017857143  L 18.02734375 2.38058035714286  Z M 2.16666666666667 25  L 23.8333333333333 25  L 23.8333333333333 9.64285714285714  L 16.7916666666667 9.64285714285714  C 16.3402777777778 9.64285714285714  15.9565972222222 9.50223214285714  15.640625 9.22098214285714  C 15.3246527777778 8.93973214285714  15.1666666666667 8.59821428571428  15.1666666666667 8.19642857142857  L 15.1666666666667 2  L 2.16666666666667 2  L 2.16666666666667 25  Z M 9.02213541666667 11.5714285714286  L 3.94401041666667 11.5714285714286  L 3.94401041666667 13.18359375  L 5.12890625 13.18359375  L 7.90494791666667 23.1428571428571  L 10.5963541666667 23.1428571428571  L 12.7630208333333 15.8353794642857  C 12.8420138888889 15.6344866071429  12.8984375 15.4034598214286  12.9322916666667 15.1422991071429  C 12.9548611111111 14.9815848214286  12.9661458333333 14.8610491071429  12.9661458333333 14.7806919642857  L 13.0338541666667 14.7806919642857  L 13.0846354166667 15.1422991071429  C 13.0959201388889 15.1724330357143  13.1156684027778 15.2728794642857  13.1438802083333 15.4436383928571  C 13.1720920138889 15.6143973214286  13.203125 15.7449776785714  13.2369791666667 15.8353794642857  L 15.4036458333333 23.1428571428571  L 18.0950520833333 23.1428571428571  L 20.87109375 13.18359375  L 22.0559895833333 13.18359375  L 22.0559895833333 11.5714285714286  L 16.9778645833333 11.5714285714286  L 16.9778645833333 13.18359375  L 18.5013020833333 13.18359375  L 16.8255208333333 19.7829241071429  C 16.7690972222222 19.9838169642857  16.7296006944444 20.21484375  16.70703125 20.4760044642857  L 16.6731770833333 20.7924107142857  L 16.60546875 20.7924107142857  C 16.60546875 20.7622767857143  16.6026475694444 20.7296316964286  16.5970052083333 20.6944754464286  C 16.5913628472222 20.6593191964286  16.5828993055556 20.619140625  16.5716145833333 20.5739397321429  C 16.5603298611111 20.5287388392857  16.5546875 20.49609375  16.5546875 20.4760044642857  C 16.5434027777778 20.42578125  16.5208333333333 20.3203125  16.4869791666667 20.1595982142857  C 16.453125 19.9988839285714  16.4249131944444 19.8733258928571  16.40234375 19.7829241071429  L 13.96484375 11.5714285714286  L 12.03515625 11.5714285714286  L 9.59765625 19.7829241071429  C 9.57508680555556 19.8733258928571  9.54969618055556 19.9963727678571  9.521484375 20.1520647321429  C 9.49327256944444 20.3077566964286  9.47352430555556 20.4157366071429  9.46223958333333 20.4760044642857  L 9.39453125 20.7924107142857  L 9.32682291666667 20.7924107142857  L 9.29296875 20.4760044642857  C 9.27039930555556 20.21484375  9.23090277777778 19.9838169642857  9.17447916666667 19.7829241071429  L 7.49869791666667 13.18359375  L 9.02213541666667 13.18359375  L 9.02213541666667 11.5714285714286  Z " fill-rule="nonzero" fill="#000000" stroke="none" transform="matrix(1 0 0 1 1121 339 )" />
  </g>
</svg>