<?xml version="1.0" encoding="utf-8"?>
<svg version="1.1" xmlns:xlink="http://www.w3.org/1999/xlink" width="26px" height="22px" xmlns="http://www.w3.org/2000/svg">
  <g transform="matrix(1 0 0 1 -351 -134 )">
    <path d="M 364 134  C 371.28 134  377 138.84  377 145  C 377 151.16  371.28 156  364 156  C 356.72 156  351 151.16  351 145  C 351 138.84  356.72 134  364 134  Z " fill-rule="nonzero" fill="#d9001b" stroke="none" />
    <path d="M 364 134.5  C 371 134.5  376.5 139.12  376.5 145  C 376.5 150.88  371 155.5  364 155.5  C 357 155.5  351.5 150.88  351.5 145  C 351.5 139.12  357 134.5  364 134.5  Z " stroke-width="1" stroke="#797979" fill="none" />
  </g>
</svg>