<?xml version="1.0" encoding="utf-8"?>
<svg version="1.1" xmlns:xlink="http://www.w3.org/1999/xlink" width="16px" height="12px" xmlns="http://www.w3.org/2000/svg">
  <g transform="matrix(1 0 0 1 -653 -611 )">
    <path d="M 12.0416666666667 0.455357142857167  L 15.2916666666667 2.54464285714283  C 15.4861111111111 2.66964285714283  15.6527777777778 2.83928571428572  15.7916666666667 3.05357142857144  C 15.9305555555555 3.26785714285717  16 3.46428571428572  16 3.64285714285717  L 16 11.3571428571428  C 16 11.5357142857143  15.9027777777778 11.6875  15.7083333333333 11.8125  C 15.5138888888889 11.9375  15.2777777777778 12  15 12  L 1 12  C 0.722222222222193 12  0.48611111111114 11.9375  0.291666666666667 11.8125  C 0.0972222222221933 11.6875  0 11.5357142857143  0 11.3571428571428  L 0 0.642857142857167  C 0 0.464285714285722  0.0972222222221933 0.3125  0.291666666666667 0.1875  C 0.48611111111114 0.0625  0.722222222222193 0  1 0  L 10.3333333333333 0  C 10.6111111111111 0  10.9166666666667 0.0446428571428328  11.25 0.133928571428555  C 11.5833333333333 0.223214285714278  11.8472222222222 0.330357142857167  12.0416666666667 0.455357142857167  Z M 11.09375 1.05803571428572  C 11.0104166666667 1.00446428571428  10.8680555555555 0.955357142857167  10.6666666666667 0.910714285714278  L 10.6666666666667 3.42857142857144  L 14.5833333333333 3.42857142857144  C 14.5138888888889 3.29910714285717  14.4375 3.20758928571428  14.3541666666667 3.15401785714283  L 11.09375 1.05803571428572  Z M 1.33333333333333 11  L 14.6666666666667 11  L 14.6666666666667 4.28571428571428  L 10.3333333333333 4.28571428571428  C 10.0555555555555 4.28571428571428  9.81944444444447 4.22321428571428  9.625 4.09821428571428  C 9.43055555555553 3.97321428571428  9.33333333333333 3.82142857142856  9.33333333333333 3.64285714285717  L 9.33333333333333 0.857142857142833  L 1.33333333333333 0.857142857142833  L 1.33333333333333 7.5  L 1.33333333333333 11  Z " fill-rule="nonzero" fill="#333333" stroke="none" transform="matrix(1 0 0 1 653 611 )" />
  </g>
</svg>