<?xml version="1.0" encoding="utf-8"?>
<svg version="1.1" xmlns:xlink="http://www.w3.org/1999/xlink" width="27px" height="36px" xmlns="http://www.w3.org/2000/svg">
  <g transform="matrix(1 0 0 1 -369 -160 )">
    <path d="M 20.3203125 1.36607142857143  L 25.8046875 7.63392857142857  C 26.1328125 8.00892857142857  26.4140625 8.51785714285714  26.6484375 9.16071428571428  C 26.8828125 9.80357142857143  27 10.3928571428571  27 10.9285714285714  L 27 34.0714285714286  C 27 34.6071428571429  26.8359375 35.0625  26.5078125 35.4375  C 26.1796875 35.8125  25.78125 36  25.3125 36  L 1.6875 36  C 1.21875 36  0.8203125 35.8125  0.4921875 35.4375  C 0.1640625 35.0625  0 34.6071428571429  0 34.0714285714286  L 0 1.92857142857143  C 0 1.39285714285714  0.1640625 0.937499999999999  0.4921875 0.5625  C 0.8203125 0.187500000000001  1.21875 0  1.6875 0  L 17.4375 0  C 17.90625 0  18.421875 0.133928571428573  18.984375 0.401785714285715  C 19.546875 0.669642857142857  19.9921875 0.991071428571427  20.3203125 1.36607142857143  Z M 18.720703125 3.17410714285714  C 18.580078125 3.01339285714286  18.33984375 2.86607142857142  18 2.73214285714286  L 18 10.2857142857143  L 24.609375 10.2857142857143  C 24.4921875 9.89732142857142  24.36328125 9.62276785714286  24.22265625 9.46205357142857  L 18.720703125 3.17410714285714  Z M 2.25 33  L 24.75 33  L 24.75 12.8571428571429  L 17.4375 12.8571428571429  C 16.96875 12.8571428571429  16.5703125 12.6696428571429  16.2421875 12.2946428571429  C 15.9140625 11.9196428571429  15.75 11.4642857142857  15.75 10.9285714285714  L 15.75 3  L 2.25 3  L 2.25 33  Z M 9.369140625 15.4285714285714  L 4.095703125 15.4285714285714  L 4.095703125 17.578125  L 5.326171875 17.578125  L 8.208984375 30.8571428571429  L 11.00390625 30.8571428571429  L 13.25390625 21.1138392857143  C 13.3359375 20.8459821428571  13.39453125 20.5379464285714  13.4296875 20.1897321428571  C 13.453125 19.9754464285714  13.46484375 19.8147321428571  13.46484375 19.7075892857143  L 13.53515625 19.7075892857143  L 13.587890625 20.1897321428571  C 13.599609375 20.2299107142857  13.6201171875 20.3638392857143  13.6494140625 20.5915178571429  C 13.6787109375 20.8191964285714  13.7109375 20.9933035714286  13.74609375 21.1138392857143  L 15.99609375 30.8571428571429  L 18.791015625 30.8571428571429  L 21.673828125 17.578125  L 22.904296875 17.578125  L 22.904296875 15.4285714285714  L 17.630859375 15.4285714285714  L 17.630859375 17.578125  L 19.212890625 17.578125  L 17.47265625 26.3772321428571  C 17.4140625 26.6450892857143  17.373046875 26.953125  17.349609375 27.3013392857143  L 17.314453125 27.7232142857143  L 17.244140625 27.7232142857143  C 17.244140625 27.6830357142857  17.2412109375 27.6395089285714  17.2353515625 27.5926339285714  C 17.2294921875 27.5457589285714  17.220703125 27.4921875  17.208984375 27.4319196428571  C 17.197265625 27.3716517857143  17.19140625 27.328125  17.19140625 27.3013392857143  C 17.1796875 27.234375  17.15625 27.09375  17.12109375 26.8794642857143  C 17.0859375 26.6651785714286  17.056640625 26.4977678571429  17.033203125 26.3772321428571  L 14.501953125 15.4285714285714  L 12.498046875 15.4285714285714  L 9.966796875 26.3772321428571  C 9.943359375 26.4977678571429  9.9169921875 26.6618303571429  9.8876953125 26.8694196428571  C 9.8583984375 27.0770089285714  9.837890625 27.2209821428571  9.826171875 27.3013392857143  L 9.755859375 27.7232142857143  L 9.685546875 27.7232142857143  L 9.650390625 27.3013392857143  C 9.626953125 26.953125  9.5859375 26.6450892857143  9.52734375 26.3772321428571  L 7.787109375 17.578125  L 9.369140625 17.578125  L 9.369140625 15.4285714285714  Z " fill-rule="nonzero" fill="#000000" stroke="none" transform="matrix(1 0 0 1 369 160 )" />
  </g>
</svg>