<?xml version="1.0" encoding="utf-8"?>
<svg version="1.1" xmlns:xlink="http://www.w3.org/1999/xlink" width="40px" height="40px" xmlns="http://www.w3.org/2000/svg">
  <g transform="matrix(1 0 0 1 -627 -143 )">
    <path d="M 627 143  L 667 143  L 667 183  L 627 183  L 627 143  " fill-rule="nonzero" fill="#cccccc" stroke="none" />
    <path d="M 630 146  L 664 146  L 664 180  L 630 180  L 630 146  " fill-rule="nonzero" fill="#ffffff" stroke="none" />
    <path d="M 650.8 155  C 649.12 155  647.8 153.68  647.8 152  C 647.8 150.32  649.12 149  650.8 149  C 652.48 149  653.8 150.32  653.8 152  C 653.8 153.68  652.48 155  650.8 155  " fill-rule="nonzero" fill="#cccccc" stroke="none" />
    <path d="M 631 179  L 631 161.4  L 639 153.4  L 650.2 159.8  L 656.6 158.2  L 663 159.8  L 663 179  L 631 179  " fill-rule="nonzero" fill="#169bd5" stroke="none" />
  </g>
</svg>