<?xml version="1.0" encoding="utf-8"?>
<svg version="1.1" xmlns:xlink="http://www.w3.org/1999/xlink" width="15px" height="15px" xmlns="http://www.w3.org/2000/svg">
  <g transform="matrix(1 0 0 1 -1229 -17 )">
    <path d="M 1236.5 17  C 1240.7 17  1244 20.3  1244 24.5  C 1244 28.7  1240.7 32  1236.5 32  C 1232.3 32  1229 28.7  1229 24.5  C 1229 20.3  1232.3 17  1236.5 17  Z " fill-rule="nonzero" fill="#d9001b" stroke="none" />
    <path d="M 1236.5 17.5  C 1240.42 17.5  1243.5 20.58  1243.5 24.5  C 1243.5 28.42  1240.42 31.5  1236.5 31.5  C 1232.58 31.5  1229.5 28.42  1229.5 24.5  C 1229.5 20.58  1232.58 17.5  1236.5 17.5  Z " stroke-width="1" stroke="#797979" fill="none" />
  </g>
</svg>