<?xml version="1.0" encoding="utf-8"?>
<svg version="1.1" xmlns:xlink="http://www.w3.org/1999/xlink" width="36px" height="36px" xmlns="http://www.w3.org/2000/svg">
  <g transform="matrix(1 0 0 1 -1309 -13 )">
    <path d="M 1327 13  C 1337.08 13  1345 20.92  1345 31  C 1345 41.08  1337.08 49  1327 49  C 1316.92 49  1309 41.08  1309 31  C 1309 20.92  1316.92 13  1327 13  Z " fill-rule="nonzero" fill="#f2f2f2" stroke="none" />
    <path d="M 1327 13.5  C 1336.8 13.5  1344.5 21.2  1344.5 31  C 1344.5 40.8  1336.8 48.5  1327 48.5  C 1317.2 48.5  1309.5 40.8  1309.5 31  C 1309.5 21.2  1317.2 13.5  1327 13.5  Z " stroke-width="1" stroke="#797979" fill="none" />
  </g>
</svg>