<?xml version="1.0" encoding="utf-8"?>
<svg version="1.1" xmlns:xlink="http://www.w3.org/1999/xlink" width="26px" height="36px" xmlns="http://www.w3.org/2000/svg">
  <g transform="matrix(1 0 0 1 -396 -664 )">
    <path d="M 19.5677083333333 1.36607142857143  L 24.8489583333333 7.63392857142857  C 25.1649305555556 8.00892857142857  25.4357638888889 8.51785714285714  25.6614583333333 9.16071428571428  C 25.8871527777778 9.80357142857143  26 10.3928571428571  26 10.9285714285714  L 26 34.0714285714286  C 26 34.6071428571429  25.8420138888889 35.0625  25.5260416666667 35.4375  C 25.2100694444444 35.8125  24.8263888888889 36  24.375 36  L 1.625 36  C 1.17361111111111 36  0.789930555555556 35.8125  0.473958333333333 35.4375  C 0.157986111111111 35.0625  0 34.6071428571429  0 34.0714285714286  L 0 1.92857142857143  C 0 1.39285714285714  0.157986111111111 0.937499999999999  0.473958333333333 0.5625  C 0.789930555555556 0.187500000000001  1.17361111111111 0  1.625 0  L 16.7916666666667 0  C 17.2430555555556 0  17.7395833333333 0.133928571428573  18.28125 0.401785714285715  C 18.8229166666667 0.669642857142857  19.2517361111111 0.991071428571427  19.5677083333333 1.36607142857143  Z M 18.02734375 3.17410714285714  C 17.8919270833333 3.01339285714286  17.6605902777778 2.86607142857142  17.3333333333333 2.73214285714286  L 17.3333333333333 10.2857142857143  L 23.6979166666667 10.2857142857143  C 23.5850694444444 9.89732142857142  23.4609375 9.62276785714286  23.3255208333333 9.46205357142857  L 18.02734375 3.17410714285714  Z M 2.16666666666667 33  L 23.8333333333333 33  L 23.8333333333333 12.8571428571429  L 16.7916666666667 12.8571428571429  C 16.3402777777778 12.8571428571429  15.9565972222222 12.6696428571429  15.640625 12.2946428571429  C 15.3246527777778 11.9196428571429  15.1666666666667 11.4642857142857  15.1666666666667 10.9285714285714  L 15.1666666666667 3  L 2.16666666666667 3  L 2.16666666666667 33  Z M 9.02213541666667 15.4285714285714  L 3.94401041666667 15.4285714285714  L 3.94401041666667 17.578125  L 5.12890625 17.578125  L 7.90494791666667 30.8571428571429  L 10.5963541666667 30.8571428571429  L 12.7630208333333 21.1138392857143  C 12.8420138888889 20.8459821428571  12.8984375 20.5379464285714  12.9322916666667 20.1897321428571  C 12.9548611111111 19.9754464285714  12.9661458333333 19.8147321428571  12.9661458333333 19.7075892857143  L 13.0338541666667 19.7075892857143  L 13.0846354166667 20.1897321428571  C 13.0959201388889 20.2299107142857  13.1156684027778 20.3638392857143  13.1438802083333 20.5915178571429  C 13.1720920138889 20.8191964285714  13.203125 20.9933035714286  13.2369791666667 21.1138392857143  L 15.4036458333333 30.8571428571429  L 18.0950520833333 30.8571428571429  L 20.87109375 17.578125  L 22.0559895833333 17.578125  L 22.0559895833333 15.4285714285714  L 16.9778645833333 15.4285714285714  L 16.9778645833333 17.578125  L 18.5013020833333 17.578125  L 16.8255208333333 26.3772321428571  C 16.7690972222222 26.6450892857143  16.7296006944444 26.953125  16.70703125 27.3013392857143  L 16.6731770833333 27.7232142857143  L 16.60546875 27.7232142857143  C 16.60546875 27.6830357142857  16.6026475694444 27.6395089285714  16.5970052083333 27.5926339285714  C 16.5913628472222 27.5457589285714  16.5828993055556 27.4921875  16.5716145833333 27.4319196428571  C 16.5603298611111 27.3716517857143  16.5546875 27.328125  16.5546875 27.3013392857143  C 16.5434027777778 27.234375  16.5208333333333 27.09375  16.4869791666667 26.8794642857143  C 16.453125 26.6651785714286  16.4249131944444 26.4977678571429  16.40234375 26.3772321428571  L 13.96484375 15.4285714285714  L 12.03515625 15.4285714285714  L 9.59765625 26.3772321428571  C 9.57508680555556 26.4977678571429  9.54969618055556 26.6618303571429  9.521484375 26.8694196428571  C 9.49327256944444 27.0770089285714  9.47352430555556 27.2209821428571  9.46223958333333 27.3013392857143  L 9.39453125 27.7232142857143  L 9.32682291666667 27.7232142857143  L 9.29296875 27.3013392857143  C 9.27039930555556 26.953125  9.23090277777778 26.6450892857143  9.17447916666667 26.3772321428571  L 7.49869791666667 17.578125  L 9.02213541666667 17.578125  L 9.02213541666667 15.4285714285714  Z " fill-rule="nonzero" fill="#000000" stroke="none" transform="matrix(1 0 0 1 396 664 )" />
  </g>
</svg>