<?xml version="1.0" encoding="utf-8"?>
<svg version="1.1" xmlns:xlink="http://www.w3.org/1999/xlink" width="41px" height="35px" xmlns="http://www.w3.org/2000/svg">
  <defs>
    <mask fill="white" id="clip408">
      <path d="M 0 34  L 0 0  L 40 0  L 40 34  L 24 34  L 0 34  Z " fill-rule="evenodd" />
    </mask>
  </defs>
  <g transform="matrix(1 0 0 1 -478 -117 )">
    <path d="M 0 34  L 0 0  L 40 0  L 40 34  L 24 34  L 0 34  Z M 39.5518004013179 33.6190303411203  L 0.448199598682038 0.380969658879735  L 27.2568940493469 23.1683599419449  L 39.5518004013179 33.6190303411203  Z " fill-rule="nonzero" fill="#f2f2f2" stroke="none" transform="matrix(1 0 0 1 478 117 )" />
    <path d="M 0 34  L 0 0  L 40 0  L 40 34  L 24 34  L 0 34  Z " stroke-width="2" stroke="#797979" fill="none" transform="matrix(1 0 0 1 478 117 )" mask="url(#clip408)" />
    <path d="M 39.5518004013179 0.380969658879735  L 0.448199598682038 33.6190303411203  M 0.448199598682038 0.380969658879735  L 27.2568940493469 23.1683599419449  L 39.5518004013179 33.6190303411203  " stroke-width="1" stroke="#797979" fill="none" transform="matrix(1 0 0 1 478 117 )" mask="url(#clip408)" />
  </g>
</svg>