<?xml version="1.0" encoding="utf-8"?>
<svg version="1.1" xmlns:xlink="http://www.w3.org/1999/xlink" width="94px" height="77px" xmlns="http://www.w3.org/2000/svg">
  <g transform="matrix(1 0 0 1 -520 -116 )">
    <path d="M 567 116  C 593.32 116  614 132.94  614 154.5  C 614 176.06  593.32 193  567 193  C 540.68 193  520 176.06  520 154.5  C 520 132.94  540.68 116  567 116  Z " fill-rule="nonzero" fill="#ffffff" stroke="none" />
    <path d="M 567 116.5  C 593.04 116.5  613.5 133.22  613.5 154.5  C 613.5 175.78  593.04 192.5  567 192.5  C 540.96 192.5  520.5 175.78  520.5 154.5  C 520.5 133.22  540.96 116.5  567 116.5  Z " stroke-width="1" stroke="#797979" fill="none" />
  </g>
</svg>