<?xml version="1.0" encoding="utf-8"?>
<svg version="1.1" xmlns:xlink="http://www.w3.org/1999/xlink" width="12px" height="12px" viewBox="245 1142.5  12 12" xmlns="http://www.w3.org/2000/svg">
  <path d="M 251 1142.5  C 254.36 1142.5  257 1145.14  257 1148.5  C 257 1151.86  254.36 1154.5  251 1154.5  C 247.64 1154.5  245 1151.86  245 1148.5  C 245 1145.14  247.64 1142.5  251 1142.5  Z " fill-rule="nonzero" fill="#f0f0f0" stroke="none" />
  <path d="M 251 1143  C 254.08 1143  256.5 1145.42  256.5 1148.5  C 256.5 1151.58  254.08 1154  251 1154  C 247.92 1154  245.5 1151.58  245.5 1148.5  C 245.5 1145.42  247.92 1143  251 1143  Z " stroke-width="1" stroke="#797979" fill="none" />
  <path d="M 251 1151.5  C 249.32 1151.5  248 1150.18  248 1148.5  C 248 1146.82  249.32 1145.5  251 1145.5  C 252.68 1145.5  254 1146.82  254 1148.5  C 254 1150.18  252.68 1151.5  251 1151.5  " fill-rule="nonzero" fill="#797979" stroke="none" />
</svg>