<?xml version="1.0" encoding="utf-8"?>
<svg version="1.1" xmlns:xlink="http://www.w3.org/1999/xlink" width="12px" height="12px" viewBox="245 1150.5  12 12" xmlns="http://www.w3.org/2000/svg">
  <path d="M 251 1150.5  C 254.36 1150.5  257 1153.14  257 1156.5  C 257 1159.86  254.36 1162.5  251 1162.5  C 247.64 1162.5  245 1159.86  245 1156.5  C 245 1153.14  247.64 1150.5  251 1150.5  Z " fill-rule="nonzero" fill="#ffffff" stroke="none" />
  <path d="M 251 1151  C 254.08 1151  256.5 1153.42  256.5 1156.5  C 256.5 1159.58  254.08 1162  251 1162  C 247.92 1162  245.5 1159.58  245.5 1156.5  C 245.5 1153.42  247.92 1151  251 1151  Z " stroke-width="1" stroke="#797979" fill="none" />
  <path d="M 251 1159.5  C 249.32 1159.5  248 1158.18  248 1156.5  C 248 1154.82  249.32 1153.5  251 1153.5  C 252.68 1153.5  254 1154.82  254 1156.5  C 254 1158.18  252.68 1159.5  251 1159.5  " fill-rule="nonzero" fill="#797979" stroke="none" />
</svg>