<?xml version="1.0" encoding="utf-8"?>
<svg version="1.1" xmlns:xlink="http://www.w3.org/1999/xlink" width="26px" height="22px" xmlns="http://www.w3.org/2000/svg">
  <g transform="matrix(1 0 0 1 -679 -71 )">
    <path d="M 692 71  C 699.28 71  705 75.84  705 82  C 705 88.16  699.28 93  692 93  C 684.72 93  679 88.16  679 82  C 679 75.84  684.72 71  692 71  Z " fill-rule="nonzero" fill="#ffffff" stroke="none" />
    <path d="M 692 71.5  C 699 71.5  704.5 76.12  704.5 82  C 704.5 87.88  699 92.5  692 92.5  C 685 92.5  679.5 87.88  679.5 82  C 679.5 76.12  685 71.5  692 71.5  Z " stroke-width="1" stroke="#797979" fill="none" />
  </g>
</svg>