<?xml version="1.0" encoding="utf-8"?>
<svg version="1.1" xmlns:xlink="http://www.w3.org/1999/xlink" width="12px" height="12px" viewBox="1213 465.5  12 12" xmlns="http://www.w3.org/2000/svg">
  <path d="M 1219 465.5  C 1222.36 465.5  1225 468.14  1225 471.5  C 1225 474.86  1222.36 477.5  1219 477.5  C 1215.64 477.5  1213 474.86  1213 471.5  C 1213 468.14  1215.64 465.5  1219 465.5  Z " fill-rule="nonzero" fill="#ffffff" stroke="none" />
  <path d="M 1219 466  C 1222.08 466  1224.5 468.42  1224.5 471.5  C 1224.5 474.58  1222.08 477  1219 477  C 1215.92 477  1213.5 474.58  1213.5 471.5  C 1213.5 468.42  1215.92 466  1219 466  Z " stroke-width="1" stroke="#797979" fill="none" />
  <path d="M 1219 474.5  C 1217.32 474.5  1216 473.18  1216 471.5  C 1216 469.82  1217.32 468.5  1219 468.5  C 1220.68 468.5  1222 469.82  1222 471.5  C 1222 473.18  1220.68 474.5  1219 474.5  " fill-rule="nonzero" fill="#797979" stroke="none" />
</svg>