<?xml version="1.0" encoding="utf-8"?>
<svg version="1.1" xmlns:xlink="http://www.w3.org/1999/xlink" width="512px" height="204px" xmlns="http://www.w3.org/2000/svg">
  <defs>
    <mask fill="white" id="clip1034">
      <path d="M 0 204  L 0 67.2477876106195  L 0 66.7964601769911  L 0 0  L 512 0  L 512 204  L 0 204  Z " fill-rule="evenodd" />
    </mask>
  </defs>
  <g transform="matrix(1 0 0 1 -154 -607 )">
    <path d="M 0 204  L 0 67.2477876106195  L 0 66.7964601769911  L 0 0  L 512 0  L 512 204  L 0 204  Z " fill-rule="nonzero" fill="#ffffff" stroke="none" transform="matrix(1 0 0 1 154 607 )" />
    <path d="M 0 204  L 0 67.2477876106195  L 0 66.7964601769911  L 0 0  L 512 0  L 512 204  L 0 204  Z " stroke-width="2" stroke="#797979" fill="none" transform="matrix(1 0 0 1 154 607 )" mask="url(#clip1034)" />
  </g>
</svg>