<?xml version="1.0" encoding="utf-8"?>
<svg version="1.1" xmlns:xlink="http://www.w3.org/1999/xlink" width="24px" height="22px" xmlns="http://www.w3.org/2000/svg">
  <g transform="matrix(1 0 0 1 -337 -141 )">
    <path d="M 349 141  C 355.72 141  361 145.84  361 152  C 361 158.16  355.72 163  349 163  C 342.28 163  337 158.16  337 152  C 337 145.84  342.28 141  349 141  Z " fill-rule="nonzero" fill="#d9001b" stroke="none" />
    <path d="M 349 141.5  C 355.44 141.5  360.5 146.12  360.5 152  C 360.5 157.88  355.44 162.5  349 162.5  C 342.56 162.5  337.5 157.88  337.5 152  C 337.5 146.12  342.56 141.5  349 141.5  Z " stroke-width="1" stroke="#797979" fill="none" />
  </g>
</svg>