<?xml version="1.0" encoding="utf-8"?>
<svg version="1.1" xmlns:xlink="http://www.w3.org/1999/xlink" width="24px" height="22px" xmlns="http://www.w3.org/2000/svg">
  <g transform="matrix(1 0 0 1 -436 -140 )">
    <path d="M 448 140  C 454.72 140  460 144.84  460 151  C 460 157.16  454.72 162  448 162  C 441.28 162  436 157.16  436 151  C 436 144.84  441.28 140  448 140  Z " fill-rule="nonzero" fill="#d9001b" stroke="none" />
    <path d="M 448 140.5  C 454.44 140.5  459.5 145.12  459.5 151  C 459.5 156.88  454.44 161.5  448 161.5  C 441.56 161.5  436.5 156.88  436.5 151  C 436.5 145.12  441.56 140.5  448 140.5  Z " stroke-width="1" stroke="#797979" fill="none" />
  </g>
</svg>