<?xml version="1.0" encoding="utf-8"?>
<svg version="1.1" xmlns:xlink="http://www.w3.org/1999/xlink" width="29px" height="26px" xmlns="http://www.w3.org/2000/svg">
  <g transform="matrix(1 0 0 1 -435 -71 )">
    <path d="M 449.5 71  C 457.62 71  464 76.72  464 84  C 464 91.28  457.62 97  449.5 97  C 441.38 97  435 91.28  435 84  C 435 76.72  441.38 71  449.5 71  Z " fill-rule="nonzero" fill="#ffffff" stroke="none" />
    <path d="M 449.5 71.5  C 457.34 71.5  463.5 77  463.5 84  C 463.5 91  457.34 96.5  449.5 96.5  C 441.66 96.5  435.5 91  435.5 84  C 435.5 77  441.66 71.5  449.5 71.5  Z " stroke-width="1" stroke="#797979" fill="none" />
  </g>
</svg>