<?xml version="1.0" encoding="utf-8"?>
<svg version="1.1" xmlns:xlink="http://www.w3.org/1999/xlink" width="26px" height="22px" xmlns="http://www.w3.org/2000/svg">
  <g transform="matrix(1 0 0 1 -337 -141 )">
    <path d="M 350 141  C 357.28 141  363 145.84  363 152  C 363 158.16  357.28 163  350 163  C 342.72 163  337 158.16  337 152  C 337 145.84  342.72 141  350 141  Z " fill-rule="nonzero" fill="#d9001b" stroke="none" />
    <path d="M 350 141.5  C 357 141.5  362.5 146.12  362.5 152  C 362.5 157.88  357 162.5  350 162.5  C 343 162.5  337.5 157.88  337.5 152  C 337.5 146.12  343 141.5  350 141.5  Z " stroke-width="1" stroke="#797979" fill="none" />
  </g>
</svg>