<?xml version="1.0" encoding="utf-8"?>
<svg version="1.1" xmlns:xlink="http://www.w3.org/1999/xlink" width="24px" height="24px" xmlns="http://www.w3.org/2000/svg">
  <g transform="matrix(1 0 0 1 -749 -752 )">
    <path d="M 18.0625 0.910714285714334  L 22.9375 5.08928571428567  C 23.2291666666667 5.33928571428567  23.4791666666667 5.67857142857144  23.6875 6.10714285714289  C 23.8958333333333 6.53571428571433  24 6.92857142857144  24 7.28571428571433  L 24 22.7142857142857  C 24 23.0714285714286  23.8541666666667 23.375  23.5625 23.625  C 23.2708333333333 23.875  22.9166666666667 24  22.5 24  L 1.5 24  C 1.08333333333329 24  0.72916666666671 23.875  0.4375 23.625  C 0.14583333333329 23.375  0 23.0714285714286  0 22.7142857142857  L 0 1.28571428571433  C 0 0.928571428571445  0.14583333333329 0.625  0.4375 0.375  C 0.72916666666671 0.125  1.08333333333329 0  1.5 0  L 15.5 0  C 15.9166666666667 0  16.375 0.0892857142856656  16.875 0.26785714285711  C 17.375 0.446428571428555  17.7708333333333 0.660714285714334  18.0625 0.910714285714334  Z M 16.640625 2.11607142857144  C 16.515625 2.00892857142856  16.3020833333333 1.91071428571433  16 1.82142857142856  L 16 6.85714285714289  L 21.875 6.85714285714289  C 21.7708333333333 6.59821428571433  21.65625 6.41517857142856  21.53125 6.30803571428567  L 16.640625 2.11607142857144  Z M 2 22  L 22 22  L 22 8.57142857142856  L 15.5 8.57142857142856  C 15.0833333333333 8.57142857142856  14.7291666666667 8.44642857142856  14.4375 8.19642857142856  C 14.1458333333333 7.94642857142856  14 7.64285714285711  14 7.28571428571433  L 14 2  L 2 2  L 2 15  L 2 22  Z " fill-rule="nonzero" fill="#000000" stroke="none" transform="matrix(1 0 0 1 749 752 )" />
  </g>
</svg>