<?xml version="1.0" encoding="utf-8"?>
<svg version="1.1" xmlns:xlink="http://www.w3.org/1999/xlink" width="26px" height="22px" xmlns="http://www.w3.org/2000/svg">
  <g transform="matrix(1 0 0 1 -342 -141 )">
    <path d="M 355 141  C 362.28 141  368 145.84  368 152  C 368 158.16  362.28 163  355 163  C 347.72 163  342 158.16  342 152  C 342 145.84  347.72 141  355 141  Z " fill-rule="nonzero" fill="#d9001b" stroke="none" />
    <path d="M 355 141.5  C 362 141.5  367.5 146.12  367.5 152  C 367.5 157.88  362 162.5  355 162.5  C 348 162.5  342.5 157.88  342.5 152  C 342.5 146.12  348 141.5  355 141.5  Z " stroke-width="1" stroke="#797979" fill="none" />
  </g>
</svg>