<?xml version="1.0" encoding="utf-8"?>
<svg version="1.1" xmlns:xlink="http://www.w3.org/1999/xlink" width="24px" height="22px" xmlns="http://www.w3.org/2000/svg">
  <g transform="matrix(1 0 0 1 -465 -140 )">
    <path d="M 477 140  C 483.72 140  489 144.84  489 151  C 489 157.16  483.72 162  477 162  C 470.28 162  465 157.16  465 151  C 465 144.84  470.28 140  477 140  Z " fill-rule="nonzero" fill="#d9001b" stroke="none" />
    <path d="M 477 140.5  C 483.44 140.5  488.5 145.12  488.5 151  C 488.5 156.88  483.44 161.5  477 161.5  C 470.56 161.5  465.5 156.88  465.5 151  C 465.5 145.12  470.56 140.5  477 140.5  Z " stroke-width="1" stroke="#797979" fill="none" />
  </g>
</svg>