<?xml version="1.0" encoding="utf-8"?>
<svg version="1.1" xmlns:xlink="http://www.w3.org/1999/xlink" width="27px" height="26px" xmlns="http://www.w3.org/2000/svg">
  <g transform="matrix(1 0 0 1 -1383 -210 )">
    <path d="M 1396.5 210  C 1404.06 210  1410 215.72  1410 223  C 1410 230.28  1404.06 236  1396.5 236  C 1388.94 236  1383 230.28  1383 223  C 1383 215.72  1388.94 210  1396.5 210  Z " fill-rule="nonzero" fill="#ffffff" stroke="none" />
    <path d="M 1396.5 210.5  C 1403.78 210.5  1409.5 216  1409.5 223  C 1409.5 230  1403.78 235.5  1396.5 235.5  C 1389.22 235.5  1383.5 230  1383.5 223  C 1383.5 216  1389.22 210.5  1396.5 210.5  Z " stroke-width="1" stroke="#797979" fill="none" />
  </g>
</svg>