<?xml version="1.0" encoding="utf-8"?>
<svg version="1.1" xmlns:xlink="http://www.w3.org/1999/xlink" width="24px" height="20px" xmlns="http://www.w3.org/2000/svg">
  <g transform="matrix(1 0 0 1 -1391 -149 )">
    <path d="M 1403 149  C 1409.72 149  1415 153.4  1415 159  C 1415 164.6  1409.72 169  1403 169  C 1396.28 169  1391 164.6  1391 159  C 1391 153.4  1396.28 149  1403 149  Z " fill-rule="nonzero" fill="#ffffff" stroke="none" />
    <path d="M 1403 149.5  C 1409.44 149.5  1414.5 153.68  1414.5 159  C 1414.5 164.32  1409.44 168.5  1403 168.5  C 1396.56 168.5  1391.5 164.32  1391.5 159  C 1391.5 153.68  1396.56 149.5  1403 149.5  Z " stroke-width="1" stroke="#797979" fill="none" />
  </g>
</svg>