<?xml version="1.0" encoding="utf-8"?>
<svg version="1.1" xmlns:xlink="http://www.w3.org/1999/xlink" width="24px" height="22px" xmlns="http://www.w3.org/2000/svg">
  <defs>
    <mask fill="white" id="clip1421">
      <path d="M 0 11  C 0 4.84  5.27999999999997 0  12 0  C 14.5414075264699 0  16.8768599440241 0.692238004966811  18.7986525447603 1.88631803265685  C 21.9584716660473 3.84962921534967  24 7.16962356593075  24 11  C 24 17.16  18.72 22  12 22  C 5.27999999999997 22  0 17.16  0 11  Z " fill-rule="evenodd" />
    </mask>
  </defs>
  <g transform="matrix(1 0 0 1 -586 -140 )">
    <path d="M 0 11  C 0 4.84  5.27999999999997 0  12 0  C 14.5414075264699 0  16.8768599440241 0.692238004966811  18.7986525447603 1.88631803265685  C 21.9584716660473 3.84962921534967  24 7.16962356593075  24 11  C 24 17.16  18.72 22  12 22  C 5.27999999999997 22  0 17.16  0 11  Z " fill-rule="nonzero" fill="#d9001b" stroke="none" transform="matrix(1 0 0 1 586 140 )" />
    <path d="M 0 11  C 0 4.84  5.27999999999997 0  12 0  C 14.5414075264699 0  16.8768599440241 0.692238004966811  18.7986525447603 1.88631803265685  C 21.9584716660473 3.84962921534967  24 7.16962356593075  24 11  C 24 17.16  18.72 22  12 22  C 5.27999999999997 22  0 17.16  0 11  Z " stroke-width="2" stroke="#797979" fill="none" transform="matrix(1 0 0 1 586 140 )" mask="url(#clip1421)" />
  </g>
</svg>