<?xml version="1.0" encoding="utf-8"?>
<svg version="1.1" xmlns:xlink="http://www.w3.org/1999/xlink" width="24px" height="20px" xmlns="http://www.w3.org/2000/svg">
  <g transform="matrix(1 0 0 1 -1337 -147 )">
    <path d="M 1349 147  C 1355.72 147  1361 151.4  1361 157  C 1361 162.6  1355.72 167  1349 167  C 1342.28 167  1337 162.6  1337 157  C 1337 151.4  1342.28 147  1349 147  Z " fill-rule="nonzero" fill="#0880f6" stroke="none" />
    <path d="M 1349 147.5  C 1355.44 147.5  1360.5 151.68  1360.5 157  C 1360.5 162.32  1355.44 166.5  1349 166.5  C 1342.56 166.5  1337.5 162.32  1337.5 157  C 1337.5 151.68  1342.56 147.5  1349 147.5  Z " stroke-width="1" stroke="#797979" fill="none" />
  </g>
</svg>