<?xml version="1.0" encoding="utf-8"?>
<svg version="1.1" xmlns:xlink="http://www.w3.org/1999/xlink" width="16px" height="16px" xmlns="http://www.w3.org/2000/svg">
  <g transform="matrix(1 0 0 1 -653 -754 )">
    <path d="M 12.0416666666667 0.60714285714289  L 15.2916666666667 3.39285714285711  C 15.4861111111111 3.55952380952378  15.6527777777778 3.7857142857143  15.7916666666667 4.07142857142859  C 15.9305555555555 4.35714285714289  16 4.61904761904763  16 4.85714285714289  L 16 15.1428571428571  C 16 15.3809523809524  15.9027777777778 15.5833333333333  15.7083333333333 15.75  C 15.5138888888889 15.9166666666667  15.2777777777778 16  15 16  L 1 16  C 0.722222222222193 16  0.48611111111114 15.9166666666667  0.291666666666667 15.75  C 0.0972222222221933 15.5833333333333  0 15.3809523809524  0 15.1428571428571  L 0 0.85714285714289  C 0 0.61904761904763  0.0972222222221933 0.416666666666667  0.291666666666667 0.25  C 0.48611111111114 0.0833333333333333  0.722222222222193 0  1 0  L 10.3333333333333 0  C 10.6111111111111 0  10.9166666666667 0.059523809523777  11.25 0.178571428571407  C 11.5833333333333 0.297619047619037  11.8472222222222 0.440476190476223  12.0416666666667 0.60714285714289  Z M 11.09375 1.4107142857143  C 11.0104166666667 1.3392857142857  10.8680555555555 1.27380952380956  10.6666666666667 1.2142857142857  L 10.6666666666667 4.57142857142859  L 14.5833333333333 4.57142857142859  C 14.5138888888889 4.39880952380956  14.4375 4.2767857142857  14.3541666666667 4.20535714285711  L 11.09375 1.4107142857143  Z M 1.33333333333333 14.8571428571429  L 14.6666666666667 14.8571428571429  L 14.6666666666667 5.7142857142857  L 10.3333333333333 5.7142857142857  C 10.0555555555555 5.7142857142857  9.81944444444447 5.63095238095237  9.625 5.4642857142857  C 9.43055555555553 5.29761904761904  9.33333333333333 5.09523809523807  9.33333333333333 4.85714285714289  L 9.33333333333333 1.14285714285711  L 1.33333333333333 1.14285714285711  L 1.33333333333333 10  L 1.33333333333333 14.8571428571429  Z " fill-rule="nonzero" fill="#333333" stroke="none" transform="matrix(1 0 0 1 653 754 )" />
  </g>
</svg>