<?xml version="1.0" encoding="utf-8"?>
<svg version="1.1" xmlns:xlink="http://www.w3.org/1999/xlink" width="17px" height="21px" xmlns="http://www.w3.org/2000/svg">
  <g transform="matrix(1 0 0 1 -1132 -14 )">
    <path d="M 16.5993265993266 15.6969696969697  C 16.8664421997755 16.026936026936  17 16.4276094276094  17 16.8989898989899  C 17 17.3703703703704  16.8664421997755 17.7710437710438  16.5993265993266 18.1010101010101  L 14.6531986531987 20.5050505050505  C 14.3860830527497 20.8350168350168  14.0617283950617 21  13.6801346801347 21  C 13.2985409652076 21  12.9741863075196 20.8350168350168  12.7070707070707 20.5050505050505  L 8.5 15.3080808080808  L 4.29292929292929 20.5050505050505  C 4.02581369248036 20.8350168350168  3.70145903479237 21  3.31986531986532 21  C 2.93827160493827 21  2.61391694725028 20.8350168350168  2.34680134680135 20.5050505050505  L 0.400673400673401 18.1010101010101  C 0.133557800224467 17.7710437710438  0 17.3703703703704  0 16.8989898989899  C 0 16.4276094276094  0.133557800224467 16.026936026936  0.400673400673401 15.6969696969697  L 4.60774410774411 10.5  L 0.400673400673401 5.3030303030303  C 0.133557800224467 4.97306397306397  0 4.57239057239057  0 4.1010101010101  C 0 3.62962962962963  0.133557800224467 3.22895622895623  0.400673400673401 2.8989898989899  L 2.34680134680135 0.494949494949495  C 2.61391694725028 0.164983164983164  2.93827160493827 0  3.31986531986532 0  C 3.70145903479237 0  4.02581369248036 0.164983164983164  4.29292929292929 0.494949494949495  L 8.5 5.69191919191919  L 12.7070707070707 0.494949494949495  C 12.9741863075196 0.164983164983164  13.2985409652076 0  13.6801346801347 0  C 14.0617283950617 0  14.3860830527497 0.164983164983164  14.6531986531987 0.494949494949495  L 16.5993265993266 2.8989898989899  C 16.8664421997755 3.22895622895623  17 3.62962962962963  17 4.1010101010101  C 17 4.57239057239057  16.8664421997755 4.97306397306397  16.5993265993266 5.3030303030303  L 12.3922558922559 10.5  L 16.5993265993266 15.6969696969697  Z " fill-rule="nonzero" fill="#000000" stroke="none" transform="matrix(1 0 0 1 1132 14 )" />
  </g>
</svg>