<?xml version="1.0" encoding="utf-8"?>
<svg version="1.1" xmlns:xlink="http://www.w3.org/1999/xlink" width="24px" height="22px" xmlns="http://www.w3.org/2000/svg">
  <g transform="matrix(1 0 0 1 -50 -243 )">
    <path d="M 62 243  C 68.72 243  74 247.84  74 254  C 74 260.16  68.72 265  62 265  C 55.28 265  50 260.16  50 254  C 50 247.84  55.28 243  62 243  Z " fill-rule="nonzero" fill="#d9001b" stroke="none" />
    <path d="M 62 243.5  C 68.44 243.5  73.5 248.12  73.5 254  C 73.5 259.88  68.44 264.5  62 264.5  C 55.56 264.5  50.5 259.88  50.5 254  C 50.5 248.12  55.56 243.5  62 243.5  Z " stroke-width="1" stroke="#797979" fill="none" />
  </g>
</svg>