<?xml version="1.0" encoding="utf-8"?>
<svg version="1.1" xmlns:xlink="http://www.w3.org/1999/xlink" width="30px" height="24px" xmlns="http://www.w3.org/2000/svg">
  <g transform="matrix(1 0 0 1 -468 -288 )">
    <path d="M 483 288  C 491.4 288  498 293.28  498 300  C 498 306.72  491.4 312  483 312  C 474.6 312  468 306.72  468 300  C 468 293.28  474.6 288  483 288  Z " fill-rule="nonzero" fill="#ffffff" stroke="none" />
    <path d="M 483 288.5  C 491.12 288.5  497.5 293.56  497.5 300  C 497.5 306.44  491.12 311.5  483 311.5  C 474.88 311.5  468.5 306.44  468.5 300  C 468.5 293.56  474.88 288.5  483 288.5  Z " stroke-width="1" stroke="#797979" fill="none" />
  </g>
</svg>