<?xml version="1.0" encoding="utf-8"?>
<svg version="1.1" xmlns:xlink="http://www.w3.org/1999/xlink" width="29px" height="26px" xmlns="http://www.w3.org/2000/svg">
  <g transform="matrix(1 0 0 1 -408 -152 )">
    <path d="M 422.5 152  C 430.62 152  437 157.72  437 165  C 437 172.28  430.62 178  422.5 178  C 414.38 178  408 172.28  408 165  C 408 157.72  414.38 152  422.5 152  Z " fill-rule="nonzero" fill="#ffffff" stroke="none" />
    <path d="M 422.5 152.5  C 430.34 152.5  436.5 158  436.5 165  C 436.5 172  430.34 177.5  422.5 177.5  C 414.66 177.5  408.5 172  408.5 165  C 408.5 158  414.66 152.5  422.5 152.5  Z " stroke-width="1" stroke="#797979" fill="none" />
  </g>
</svg>