<?xml version="1.0" encoding="utf-8"?>
<svg version="1.1" xmlns:xlink="http://www.w3.org/1999/xlink" width="26px" height="31px" xmlns="http://www.w3.org/2000/svg">
  <g transform="matrix(1 0 0 1 -440 -135 )">
    <path d="M 453 135  C 460.28 135  466 141.82  466 150.5  C 466 159.18  460.28 166  453 166  C 445.72 166  440 159.18  440 150.5  C 440 141.82  445.72 135  453 135  Z " fill-rule="nonzero" fill="#ffffff" stroke="none" />
    <path d="M 453 135.5  C 460 135.5  465.5 142.1  465.5 150.5  C 465.5 158.9  460 165.5  453 165.5  C 446 165.5  440.5 158.9  440.5 150.5  C 440.5 142.1  446 135.5  453 135.5  Z " stroke-width="1" stroke="#797979" fill="none" />
  </g>
</svg>