<?xml version="1.0" encoding="utf-8"?>
<svg version="1.1" xmlns:xlink="http://www.w3.org/1999/xlink" width="30px" height="30px" xmlns="http://www.w3.org/2000/svg">
  <g transform="matrix(1 0 0 1 -258 -58 )">
    <path d="M 273 59  C 280.84 59  287 65.16  287 73  C 287 80.84  280.84 87  273 87  C 265.16 87  259 80.84  259 73  C 259 65.16  265.16 59  273 59  Z " fill-rule="nonzero" fill="#105c55" stroke="none" />
    <path d="M 273 59  C 280.84 59  287 65.16  287 73  C 287 80.84  280.84 87  273 87  C 265.16 87  259 80.84  259 73  C 259 65.16  265.16 59  273 59  Z " stroke-width="2" stroke="#105c55" fill="none" />
  </g>
</svg>