<?xml version="1.0" encoding="utf-8"?>
<svg version="1.1" xmlns:xlink="http://www.w3.org/1999/xlink" width="24px" height="22px" xmlns="http://www.w3.org/2000/svg">
  <g transform="matrix(1 0 0 1 -428 -465 )">
    <path d="M 440 465  C 446.72 465  452 469.84  452 476  C 452 482.16  446.72 487  440 487  C 433.28 487  428 482.16  428 476  C 428 469.84  433.28 465  440 465  Z " fill-rule="nonzero" fill="#d9001b" stroke="none" />
    <path d="M 440 465.5  C 446.44 465.5  451.5 470.12  451.5 476  C 451.5 481.88  446.44 486.5  440 486.5  C 433.56 486.5  428.5 481.88  428.5 476  C 428.5 470.12  433.56 465.5  440 465.5  Z " stroke-width="1" stroke="#797979" fill="none" />
  </g>
</svg>