<?xml version="1.0" encoding="utf-8"?>
<svg version="1.1" xmlns:xlink="http://www.w3.org/1999/xlink" width="26px" height="20px" xmlns="http://www.w3.org/2000/svg">
  <g transform="matrix(1 0 0 1 -218 -467 )">
    <path d="M 231 467  C 238.28 467  244 471.4  244 477  C 244 482.6  238.28 487  231 487  C 223.72 487  218 482.6  218 477  C 218 471.4  223.72 467  231 467  Z " fill-rule="nonzero" fill="#d9001b" stroke="none" />
    <path d="M 231 467.5  C 238 467.5  243.5 471.68  243.5 477  C 243.5 482.32  238 486.5  231 486.5  C 224 486.5  218.5 482.32  218.5 477  C 218.5 471.68  224 467.5  231 467.5  Z " stroke-width="1" stroke="#797979" fill="none" />
  </g>
</svg>