<?xml version="1.0" encoding="utf-8"?>
<svg version="1.1" xmlns:xlink="http://www.w3.org/1999/xlink" width="12px" height="12px" viewBox="158 425.5  12 12" xmlns="http://www.w3.org/2000/svg">
  <path d="M 164 425.5  C 167.36 425.5  170 428.14  170 431.5  C 170 434.86  167.36 437.5  164 437.5  C 160.64 437.5  158 434.86  158 431.5  C 158 428.14  160.64 425.5  164 425.5  Z " fill-rule="nonzero" fill="#f0f0f0" stroke="none" />
  <path d="M 164 426  C 167.08 426  169.5 428.42  169.5 431.5  C 169.5 434.58  167.08 437  164 437  C 160.92 437  158.5 434.58  158.5 431.5  C 158.5 428.42  160.92 426  164 426  Z " stroke-width="1" stroke="#797979" fill="none" />
  <path d="M 164 434.5  C 162.32 434.5  161 433.18  161 431.5  C 161 429.82  162.32 428.5  164 428.5  C 165.68 428.5  167 429.82  167 431.5  C 167 433.18  165.68 434.5  164 434.5  " fill-rule="nonzero" fill="#797979" stroke="none" />
</svg>