<?xml version="1.0" encoding="utf-8"?>
<svg version="1.1" xmlns:xlink="http://www.w3.org/1999/xlink" width="24px" height="36px" xmlns="http://www.w3.org/2000/svg">
  <g transform="matrix(1 0 0 1 -314 -161 )">
    <path d="M 18.0625 1.36607142857143  L 22.9375 7.63392857142857  C 23.2291666666667 8.00892857142857  23.4791666666667 8.51785714285714  23.6875 9.16071428571428  C 23.8958333333333 9.80357142857143  24 10.3928571428571  24 10.9285714285714  L 24 34.0714285714286  C 24 34.6071428571429  23.8541666666667 35.0625  23.5625 35.4375  C 23.2708333333333 35.8125  22.9166666666667 36  22.5 36  L 1.5 36  C 1.08333333333333 36  0.729166666666667 35.8125  0.4375 35.4375  C 0.145833333333333 35.0625  0 34.6071428571429  0 34.0714285714286  L 0 1.92857142857143  C 0 1.39285714285714  0.145833333333333 0.937499999999999  0.4375 0.5625  C 0.729166666666667 0.187500000000001  1.08333333333333 0  1.5 0  L 15.5 0  C 15.9166666666667 0  16.375 0.133928571428573  16.875 0.401785714285715  C 17.375 0.669642857142857  17.7708333333333 0.991071428571427  18.0625 1.36607142857143  Z M 16.640625 3.17410714285714  C 16.515625 3.01339285714286  16.3020833333333 2.86607142857142  16 2.73214285714286  L 16 10.2857142857143  L 21.875 10.2857142857143  C 21.7708333333333 9.89732142857142  21.65625 9.62276785714286  21.53125 9.46205357142857  L 16.640625 3.17410714285714  Z M 2 33  L 22 33  L 22 12.8571428571429  L 15.5 12.8571428571429  C 15.0833333333333 12.8571428571429  14.7291666666667 12.6696428571429  14.4375 12.2946428571429  C 14.1458333333333 11.9196428571429  14 11.4642857142857  14 10.9285714285714  L 14 3  L 2 3  L 2 33  Z M 8.328125 15.4285714285714  L 3.640625 15.4285714285714  L 3.640625 17.578125  L 4.734375 17.578125  L 7.296875 30.8571428571429  L 9.78125 30.8571428571429  L 11.78125 21.1138392857143  C 11.8541666666667 20.8459821428571  11.90625 20.5379464285714  11.9375 20.1897321428571  C 11.9583333333333 19.9754464285714  11.96875 19.8147321428571  11.96875 19.7075892857143  L 12.03125 19.7075892857143  L 12.078125 20.1897321428571  C 12.0885416666667 20.2299107142857  12.1067708333333 20.3638392857143  12.1328125 20.5915178571429  C 12.1588541666667 20.8191964285714  12.1875 20.9933035714286  12.21875 21.1138392857143  L 14.21875 30.8571428571429  L 16.703125 30.8571428571429  L 19.265625 17.578125  L 20.359375 17.578125  L 20.359375 15.4285714285714  L 15.671875 15.4285714285714  L 15.671875 17.578125  L 17.078125 17.578125  L 15.53125 26.3772321428571  C 15.4791666666667 26.6450892857143  15.4427083333333 26.953125  15.421875 27.3013392857143  L 15.390625 27.7232142857143  L 15.328125 27.7232142857143  C 15.328125 27.6830357142857  15.3255208333333 27.6395089285714  15.3203125 27.5926339285714  C 15.3151041666667 27.5457589285714  15.3072916666667 27.4921875  15.296875 27.4319196428571  C 15.2864583333333 27.3716517857143  15.28125 27.328125  15.28125 27.3013392857143  C 15.2708333333333 27.234375  15.25 27.09375  15.21875 26.8794642857143  C 15.1875 26.6651785714286  15.1614583333333 26.4977678571429  15.140625 26.3772321428571  L 12.890625 15.4285714285714  L 11.109375 15.4285714285714  L 8.859375 26.3772321428571  C 8.83854166666667 26.4977678571429  8.81510416666667 26.6618303571429  8.7890625 26.8694196428571  C 8.76302083333333 27.0770089285714  8.74479166666667 27.2209821428571  8.734375 27.3013392857143  L 8.671875 27.7232142857143  L 8.609375 27.7232142857143  L 8.578125 27.3013392857143  C 8.55729166666667 26.953125  8.52083333333333 26.6450892857143  8.46875 26.3772321428571  L 6.921875 17.578125  L 8.328125 17.578125  L 8.328125 15.4285714285714  Z " fill-rule="nonzero" fill="#000000" stroke="none" transform="matrix(1 0 0 1 314 161 )" />
  </g>
</svg>