<?xml version="1.0" encoding="utf-8"?>
<svg version="1.1" xmlns:xlink="http://www.w3.org/1999/xlink" width="12px" height="12px" viewBox="509 152  12 12" xmlns="http://www.w3.org/2000/svg">
  <path d="M 515 152  C 518.36 152  521 154.64  521 158  C 521 161.36  518.36 164  515 164  C 511.64 164  509 161.36  509 158  C 509 154.64  511.64 152  515 152  Z " fill-rule="nonzero" fill="#f0f0f0" stroke="none" />
  <path d="M 515 152.5  C 518.08 152.5  520.5 154.92  520.5 158  C 520.5 161.08  518.08 163.5  515 163.5  C 511.92 163.5  509.5 161.08  509.5 158  C 509.5 154.92  511.92 152.5  515 152.5  Z " stroke-width="1" stroke="#797979" fill="none" />
  <path d="M 515 161  C 513.32 161  512 159.68  512 158  C 512 156.32  513.32 155  515 155  C 516.68 155  518 156.32  518 158  C 518 159.68  516.68 161  515 161  " fill-rule="nonzero" fill="#797979" stroke="none" />
</svg>