<?xml version="1.0" encoding="utf-8"?>
<svg version="1.1" xmlns:xlink="http://www.w3.org/1999/xlink" width="20px" height="20px" xmlns="http://www.w3.org/2000/svg">
  <g transform="matrix(1 0 0 1 -119 -1445 )">
    <path d="M 129 1447  C 133.48 1447  137 1450.52  137 1455  C 137 1459.48  133.48 1463  129 1463  C 124.52 1463  121 1459.48  121 1455  C 121 1450.52  124.52 1447  129 1447  Z " fill-rule="nonzero" fill="#cccccc" stroke="none" />
    <path d="M 129 1446.5  C 133.76 1446.5  137.5 1450.24  137.5 1455  C 137.5 1459.76  133.76 1463.5  129 1463.5  C 124.24 1463.5  120.5 1459.76  120.5 1455  C 120.5 1450.24  124.24 1446.5  129 1446.5  Z " stroke-width="3" stroke="#333333" fill="none" />
  </g>
</svg>