<?xml version="1.0" encoding="utf-8"?>
<svg version="1.1" xmlns:xlink="http://www.w3.org/1999/xlink" width="30px" height="30px" xmlns="http://www.w3.org/2000/svg">
  <g transform="matrix(1 0 0 1 -392 -505 )">
    <path d="M 407 506  C 414.84 506  421 512.16  421 520  C 421 527.84  414.84 534  407 534  C 399.16 534  393 527.84  393 520  C 393 512.16  399.16 506  407 506  Z " fill-rule="nonzero" fill="#ffffff" stroke="none" />
    <path d="M 407 506  C 414.84 506  421 512.16  421 520  C 421 527.84  414.84 534  407 534  C 399.16 534  393 527.84  393 520  C 393 512.16  399.16 506  407 506  Z " stroke-width="2" stroke="#e4e4e4" fill="none" />
  </g>
</svg>