<?xml version="1.0" encoding="utf-8"?>
<svg version="1.1" xmlns:xlink="http://www.w3.org/1999/xlink" width="30px" height="30px" xmlns="http://www.w3.org/2000/svg">
  <g transform="matrix(1 0 0 1 -190 -505 )">
    <path d="M 205 506  C 212.84 506  219 512.16  219 520  C 219 527.84  212.84 534  205 534  C 197.16 534  191 527.84  191 520  C 191 512.16  197.16 506  205 506  Z " fill-rule="nonzero" fill="#ffffff" stroke="none" />
    <path d="M 205 506  C 212.84 506  219 512.16  219 520  C 219 527.84  212.84 534  205 534  C 197.16 534  191 527.84  191 520  C 191 512.16  197.16 506  205 506  Z " stroke-width="2" stroke="#105c55" fill="none" />
  </g>
</svg>