<?xml version="1.0" encoding="utf-8"?>
<svg version="1.1" xmlns:xlink="http://www.w3.org/1999/xlink" width="389px" height="141px" xmlns="http://www.w3.org/2000/svg">
  <g transform="matrix(1 0 0 1 -366 -573 )">
    <path d="M 366 573  L 755 573  L 755 714  L 366 714  L 366 573  " fill-rule="nonzero" fill="#cccccc" stroke="none" />
    <path d="M 376 583  L 745 583  L 745 704  L 376 704  L 376 583  " fill-rule="nonzero" fill="#ffffff" stroke="none" />
    <path d="M 578.855 615.3  C 572.933 615.3  568.28 610.647  568.28 604.725  C 568.28 598.803  572.933 594.15  578.855 594.15  C 584.777 594.15  589.43 598.803  589.43 604.725  C 589.43 610.647  584.777 615.3  578.855 615.3  " fill-rule="nonzero" fill="#cccccc" stroke="none" />
    <path d="M 380 701  L 380 638.3  L 470.5 609.8  L 597.2 676.207197943445  L 669.6 626.9  L 742 676.207197943445  L 742 701  L 380 701  " fill-rule="nonzero" fill="#169bd5" stroke="none" />
  </g>
</svg>