<?xml version="1.0" encoding="utf-8"?>
<svg version="1.1" xmlns:xlink="http://www.w3.org/1999/xlink" width="12px" height="12px" viewBox="243 332.5  12 12" xmlns="http://www.w3.org/2000/svg">
  <path d="M 249 332.5  C 252.36 332.5  255 335.14  255 338.5  C 255 341.86  252.36 344.5  249 344.5  C 245.64 344.5  243 341.86  243 338.5  C 243 335.14  245.64 332.5  249 332.5  Z " fill-rule="nonzero" fill="#ffffff" stroke="none" />
  <path d="M 249 333  C 252.08 333  254.5 335.42  254.5 338.5  C 254.5 341.58  252.08 344  249 344  C 245.92 344  243.5 341.58  243.5 338.5  C 243.5 335.42  245.92 333  249 333  Z " stroke-width="1" stroke="#797979" fill="none" />
  <path d="M 249 341.5  C 247.32 341.5  246 340.18  246 338.5  C 246 336.82  247.32 335.5  249 335.5  C 250.68 335.5  252 336.82  252 338.5  C 252 340.18  250.68 341.5  249 341.5  " fill-rule="nonzero" fill="#797979" stroke="none" />
</svg>