<?xml version="1.0" encoding="utf-8"?>
<svg version="1.1" xmlns:xlink="http://www.w3.org/1999/xlink" width="12px" height="12px" viewBox="192 331.5  12 12" xmlns="http://www.w3.org/2000/svg">
  <path d="M 198 331.5  C 201.36 331.5  204 334.14  204 337.5  C 204 340.86  201.36 343.5  198 343.5  C 194.64 343.5  192 340.86  192 337.5  C 192 334.14  194.64 331.5  198 331.5  Z " fill-rule="nonzero" fill="#f0f0f0" stroke="none" />
  <path d="M 198 332  C 201.08 332  203.5 334.42  203.5 337.5  C 203.5 340.58  201.08 343  198 343  C 194.92 343  192.5 340.58  192.5 337.5  C 192.5 334.42  194.92 332  198 332  Z " stroke-width="1" stroke="#797979" fill="none" />
  <path d="M 198 340.5  C 196.32 340.5  195 339.18  195 337.5  C 195 335.82  196.32 334.5  198 334.5  C 199.68 334.5  201 335.82  201 337.5  C 201 339.18  199.68 340.5  198 340.5  " fill-rule="nonzero" fill="#797979" stroke="none" />
</svg>