<?xml version="1.0" encoding="utf-8"?>
<svg version="1.1" xmlns:xlink="http://www.w3.org/1999/xlink" width="40px" height="40px" xmlns="http://www.w3.org/2000/svg">
  <g transform="matrix(1 0 0 1 -1213 -18 )">
    <path d="M 1233 18  C 1244.2 18  1253 26.8  1253 38  C 1253 49.2  1244.2 58  1233 58  C 1221.8 58  1213 49.2  1213 38  C 1213 26.8  1221.8 18  1233 18  Z " fill-rule="nonzero" fill="#0000ff" stroke="none" />
    <path d="M 1233 18.5  C 1243.92 18.5  1252.5 27.08  1252.5 38  C 1252.5 48.92  1243.92 57.5  1233 57.5  C 1222.08 57.5  1213.5 48.92  1213.5 38  C 1213.5 27.08  1222.08 18.5  1233 18.5  Z " stroke-width="1" stroke="#797979" fill="none" />
  </g>
</svg>