<?xml version="1.0" encoding="utf-8"?>
<svg version="1.1" xmlns:xlink="http://www.w3.org/1999/xlink" width="12px" height="12px" viewBox="631 364.5  12 12" xmlns="http://www.w3.org/2000/svg">
  <path d="M 637 364.5  C 640.36 364.5  643 367.14  643 370.5  C 643 373.86  640.36 376.5  637 376.5  C 633.64 376.5  631 373.86  631 370.5  C 631 367.14  633.64 364.5  637 364.5  Z " fill-rule="nonzero" fill="#ffffff" stroke="none" />
  <path d="M 637 365  C 640.08 365  642.5 367.42  642.5 370.5  C 642.5 373.58  640.08 376  637 376  C 633.92 376  631.5 373.58  631.5 370.5  C 631.5 367.42  633.92 365  637 365  Z " stroke-width="1" stroke="#797979" fill="none" />
  <path d="M 637 373.5  C 635.32 373.5  634 372.18  634 370.5  C 634 368.82  635.32 367.5  637 367.5  C 638.68 367.5  640 368.82  640 370.5  C 640 372.18  638.68 373.5  637 373.5  " fill-rule="nonzero" fill="#797979" stroke="none" />
</svg>