<?xml version="1.0" encoding="utf-8"?>
<svg version="1.1" xmlns:xlink="http://www.w3.org/1999/xlink" width="12px" height="12px" viewBox="695 364.5  12 12" xmlns="http://www.w3.org/2000/svg">
  <path d="M 701 364.5  C 704.36 364.5  707 367.14  707 370.5  C 707 373.86  704.36 376.5  701 376.5  C 697.64 376.5  695 373.86  695 370.5  C 695 367.14  697.64 364.5  701 364.5  Z " fill-rule="nonzero" fill="#ffffff" stroke="none" />
  <path d="M 701 365  C 704.08 365  706.5 367.42  706.5 370.5  C 706.5 373.58  704.08 376  701 376  C 697.92 376  695.5 373.58  695.5 370.5  C 695.5 367.42  697.92 365  701 365  Z " stroke-width="1" stroke="#797979" fill="none" />
  <path d="M 701 373.5  C 699.32 373.5  698 372.18  698 370.5  C 698 368.82  699.32 367.5  701 367.5  C 702.68 367.5  704 368.82  704 370.5  C 704 372.18  702.68 373.5  701 373.5  " fill-rule="nonzero" fill="#797979" stroke="none" />
</svg>