<?xml version="1.0" encoding="utf-8"?>
<svg version="1.1" xmlns:xlink="http://www.w3.org/1999/xlink" width="42px" height="42px" xmlns="http://www.w3.org/2000/svg">
  <g transform="matrix(1 0 0 1 -329 -838 )">
    <path d="M 350 838  C 361.76 838  371 847.24  371 859  C 371 870.76  361.76 880  350 880  C 338.24 880  329 870.76  329 859  C 329 847.24  338.24 838  350 838  Z " fill-rule="nonzero" fill="#ffffff" stroke="none" />
    <path d="M 350 838.5  C 361.48 838.5  370.5 847.52  370.5 859  C 370.5 870.48  361.48 879.5  350 879.5  C 338.52 879.5  329.5 870.48  329.5 859  C 329.5 847.52  338.52 838.5  350 838.5  Z " stroke-width="1" stroke="#797979" fill="none" />
  </g>
</svg>