<?xml version="1.0" encoding="utf-8"?>
<svg version="1.1" xmlns:xlink="http://www.w3.org/1999/xlink" width="42px" height="42px" xmlns="http://www.w3.org/2000/svg">
  <g transform="matrix(1 0 0 1 -329 -784 )">
    <path d="M 350 784  C 361.76 784  371 793.24  371 805  C 371 816.76  361.76 826  350 826  C 338.24 826  329 816.76  329 805  C 329 793.24  338.24 784  350 784  Z " fill-rule="nonzero" fill="#ffffff" stroke="none" />
    <path d="M 350 784.5  C 361.48 784.5  370.5 793.52  370.5 805  C 370.5 816.48  361.48 825.5  350 825.5  C 338.52 825.5  329.5 816.48  329.5 805  C 329.5 793.52  338.52 784.5  350 784.5  Z " stroke-width="1" stroke="#797979" fill="none" />
  </g>
</svg>