<?xml version="1.0" encoding="utf-8"?>
<svg version="1.1" xmlns:xlink="http://www.w3.org/1999/xlink" width="40px" height="40px" xmlns="http://www.w3.org/2000/svg">
  <g transform="matrix(1 0 0 1 -627 -279 )">
    <path d="M 627 279  L 667 279  L 667 319  L 627 319  L 627 279  " fill-rule="nonzero" fill="#cccccc" stroke="none" />
    <path d="M 630 282  L 664 282  L 664 316  L 630 316  L 630 282  " fill-rule="nonzero" fill="#ffffff" stroke="none" />
    <path d="M 650.8 291  C 649.12 291  647.8 289.68  647.8 288  C 647.8 286.32  649.12 285  650.8 285  C 652.48 285  653.8 286.32  653.8 288  C 653.8 289.68  652.48 291  650.8 291  " fill-rule="nonzero" fill="#cccccc" stroke="none" />
    <path d="M 631 315  L 631 297.4  L 639 289.4  L 650.2 295.8  L 656.6 294.2  L 663 295.8  L 663 315  L 631 315  " fill-rule="nonzero" fill="#169bd5" stroke="none" />
  </g>
</svg>