<?xml version="1.0" encoding="utf-8"?>
<svg version="1.1" xmlns:xlink="http://www.w3.org/1999/xlink" width="12px" height="12px" viewBox="315 319.5  12 12" xmlns="http://www.w3.org/2000/svg">
  <path d="M 321 319.5  C 324.36 319.5  327 322.14  327 325.5  C 327 328.86  324.36 331.5  321 331.5  C 317.64 331.5  315 328.86  315 325.5  C 315 322.14  317.64 319.5  321 319.5  Z " fill-rule="nonzero" fill="#f0f0f0" stroke="none" />
  <path d="M 321 320  C 324.08 320  326.5 322.42  326.5 325.5  C 326.5 328.58  324.08 331  321 331  C 317.92 331  315.5 328.58  315.5 325.5  C 315.5 322.42  317.92 320  321 320  Z " stroke-width="1" stroke="#797979" fill="none" />
  <path d="M 321 328.5  C 319.32 328.5  318 327.18  318 325.5  C 318 323.82  319.32 322.5  321 322.5  C 322.68 322.5  324 323.82  324 325.5  C 324 327.18  322.68 328.5  321 328.5  " fill-rule="nonzero" fill="#797979" stroke="none" />
</svg>