<?xml version="1.0" encoding="utf-8"?>
<svg version="1.1" xmlns:xlink="http://www.w3.org/1999/xlink" width="20px" height="23px" xmlns="http://www.w3.org/2000/svg">
  <g transform="matrix(1 0 0 1 -998 -323 )">
    <path d="M 19.5286195286195 17.1919191919192  C 19.8428731762065 17.5533108866442  20 17.9921436588103  20 18.5084175084175  C 20 19.0246913580247  19.8428731762065 19.4635241301908  19.5286195286195 19.8249158249158  L 17.2390572390572 22.4579124579125  C 16.9248035914703 22.8193041526375  16.5432098765432 23  16.0942760942761 23  C 15.645342312009 23  15.2637485970819 22.8193041526375  14.9494949494949 22.4579124579125  L 10 16.7659932659933  L 5.05050505050505 22.4579124579125  C 4.73625140291807 22.8193041526375  4.35465768799102 23  3.90572390572391 23  C 3.45679012345679 23  3.07519640852974 22.8193041526375  2.76094276094276 22.4579124579125  L 0.471380471380471 19.8249158249158  C 0.157126823793491 19.4635241301908  0 19.0246913580247  0 18.5084175084175  C 0 17.9921436588103  0.157126823793491 17.5533108866442  0.471380471380471 17.1919191919192  L 5.42087542087542 11.5  L 0.471380471380471 5.80808080808081  C 0.157126823793491 5.44668911335578  0 5.00785634118968  0 4.49158249158249  C 0 3.97530864197531  0.157126823793491 3.5364758698092  0.471380471380471 3.17508417508418  L 2.76094276094276 0.542087542087542  C 3.07519640852974 0.180695847362513  3.45679012345679 0  3.90572390572391 0  C 4.35465768799102 0  4.73625140291807 0.180695847362513  5.05050505050505 0.542087542087542  L 10 6.23400673400674  L 14.9494949494949 0.542087542087542  C 15.2637485970819 0.180695847362513  15.645342312009 0  16.0942760942761 0  C 16.5432098765432 0  16.9248035914703 0.180695847362513  17.2390572390572 0.542087542087542  L 19.5286195286195 3.17508417508418  C 19.8428731762065 3.5364758698092  20 3.97530864197531  20 4.49158249158249  C 20 5.00785634118968  19.8428731762065 5.44668911335578  19.5286195286195 5.80808080808081  L 14.5791245791246 11.5  L 19.5286195286195 17.1919191919192  Z " fill-rule="nonzero" fill="#000000" stroke="none" transform="matrix(1 0 0 1 998 323 )" />
  </g>
</svg>