<?xml version="1.0" encoding="utf-8"?>
<svg version="1.1" xmlns:xlink="http://www.w3.org/1999/xlink" width="36px" height="45px" xmlns="http://www.w3.org/2000/svg">
  <g transform="matrix(1 0 0 1 -15 -295 )">
    <path d="M 27.09375 1.70758928571429  L 34.40625 9.54241071428571  C 34.84375 10.0111607142857  35.21875 10.6473214285714  35.53125 11.4508928571429  C 35.84375 12.2544642857143  36 12.9910714285714  36 13.6607142857143  L 36 42.5892857142857  C 36 43.2589285714286  35.78125 43.828125  35.34375 44.296875  C 34.90625 44.765625  34.375 45  33.75 45  L 2.25 45  C 1.625 45  1.09375 44.765625  0.65625 44.296875  C 0.21875 43.828125  0 43.2589285714286  0 42.5892857142857  L 0 2.41071428571429  C 0 1.74107142857143  0.21875 1.171875  0.65625 0.703125  C 1.09375 0.234375000000002  1.625 0  2.25 0  L 23.25 0  C 23.875 0  24.5625 0.167410714285716  25.3125 0.502232142857144  C 26.0625 0.837053571428571  26.65625 1.23883928571428  27.09375 1.70758928571429  Z M 24.9609375 3.96763392857143  C 24.7734375 3.76674107142857  24.453125 3.58258928571428  24 3.41517857142857  L 24 12.8571428571429  L 32.8125 12.8571428571429  C 32.65625 12.3716517857143  32.484375 12.0284598214286  32.296875 11.8275669642857  L 24.9609375 3.96763392857143  Z M 3 41  L 33 41  L 33 16.0714285714286  L 23.25 16.0714285714286  C 22.625 16.0714285714286  22.09375 15.8370535714286  21.65625 15.3683035714286  C 21.21875 14.8995535714286  21 14.3303571428571  21 13.6607142857143  L 21 4  L 3 4  L 3 41  Z M 12.4921875 19.2857142857143  L 5.4609375 19.2857142857143  L 5.4609375 21.97265625  L 7.1015625 21.97265625  L 10.9453125 38.5714285714286  L 14.671875 38.5714285714286  L 17.671875 26.3922991071429  C 17.78125 26.0574776785714  17.859375 25.6724330357143  17.90625 25.2371651785714  C 17.9375 24.9693080357143  17.953125 24.7684151785714  17.953125 24.6344866071429  L 18.046875 24.6344866071429  L 18.1171875 25.2371651785714  C 18.1328125 25.2873883928571  18.16015625 25.4547991071429  18.19921875 25.7393973214286  C 18.23828125 26.0239955357143  18.28125 26.2416294642857  18.328125 26.3922991071429  L 21.328125 38.5714285714286  L 25.0546875 38.5714285714286  L 28.8984375 21.97265625  L 30.5390625 21.97265625  L 30.5390625 19.2857142857143  L 23.5078125 19.2857142857143  L 23.5078125 21.97265625  L 25.6171875 21.97265625  L 23.296875 32.9715401785714  C 23.21875 33.3063616071429  23.1640625 33.69140625  23.1328125 34.1266741071429  L 23.0859375 34.6540178571429  L 22.9921875 34.6540178571429  C 22.9921875 34.6037946428571  22.98828125 34.5493861607143  22.98046875 34.4907924107143  C 22.97265625 34.4321986607143  22.9609375 34.365234375  22.9453125 34.2898995535714  C 22.9296875 34.2145647321429  22.921875 34.16015625  22.921875 34.1266741071429  C 22.90625 34.04296875  22.875 33.8671875  22.828125 33.5993303571429  C 22.78125 33.3314732142857  22.7421875 33.1222098214286  22.7109375 32.9715401785714  L 19.3359375 19.2857142857143  L 16.6640625 19.2857142857143  L 13.2890625 32.9715401785714  C 13.2578125 33.1222098214286  13.22265625 33.3272879464286  13.18359375 33.5867745535714  C 13.14453125 33.8462611607143  13.1171875 34.0262276785714  13.1015625 34.1266741071429  L 13.0078125 34.6540178571429  L 12.9140625 34.6540178571429  L 12.8671875 34.1266741071429  C 12.8359375 33.69140625  12.78125 33.3063616071429  12.703125 32.9715401785714  L 10.3828125 21.97265625  L 12.4921875 21.97265625  L 12.4921875 19.2857142857143  Z " fill-rule="nonzero" fill="#000000" stroke="none" transform="matrix(1 0 0 1 15 295 )" />
  </g>
</svg>