<?xml version="1.0" encoding="utf-8"?>
<svg version="1.1" xmlns:xlink="http://www.w3.org/1999/xlink" width="32px" height="37px" xmlns="http://www.w3.org/2000/svg">
  <g transform="matrix(1 0 0 1 -24 -26 )">
    <path d="M 24.0833333333333 1.40401785714286  L 30.5833333333333 7.84598214285714  C 30.9722222222222 8.23139880952381  31.3055555555556 8.75446428571429  31.5833333333333 9.41517857142857  C 31.8611111111111 10.0758928571429  32 10.6815476190476  32 11.2321428571429  L 32 35.0178571428571  C 32 35.5684523809524  31.8055555555556 36.0364583333333  31.4166666666667 36.421875  C 31.0277777777778 36.8072916666667  30.5555555555556 37  30 37  L 2 37  C 1.44444444444444 37  0.972222222222222 36.8072916666667  0.583333333333333 36.421875  C 0.194444444444444 36.0364583333333  0 35.5684523809524  0 35.0178571428571  L 0 1.98214285714286  C 0 1.43154761904762  0.194444444444444 0.963541666666665  0.583333333333333 0.578125  C 0.972222222222222 0.192708333333335  1.44444444444444 0  2 0  L 20.6666666666667 0  C 21.2222222222222 0  21.8333333333333 0.137648809523811  22.5 0.412946428571429  C 23.1666666666667 0.688244047619047  23.6944444444444 1.01860119047619  24.0833333333333 1.40401785714286  Z M 22.1875 3.26227678571429  C 22.0208333333333 3.09709821428571  21.7361111111111 2.94568452380952  21.3333333333333 2.80803571428571  L 21.3333333333333 10.5714285714286  L 29.1666666666667 10.5714285714286  C 29.0277777777778 10.1722470238095  28.875 9.89006696428571  28.7083333333333 9.72488839285714  L 22.1875 3.26227678571429  Z M 3 34  L 29 34  L 29 13.2142857142857  L 20.6666666666667 13.2142857142857  C 20.1111111111111 13.2142857142857  19.6388888888889 13.0215773809524  19.25 12.6361607142857  C 18.8611111111111 12.250744047619  18.6666666666667 11.7827380952381  18.6666666666667 11.2321428571429  L 18.6666666666667 3  L 3 3  L 3 34  Z M 11.1041666666667 15.8571428571429  L 4.85416666666667 15.8571428571429  L 4.85416666666667 18.06640625  L 6.3125 18.06640625  L 9.72916666666667 31.7142857142857  L 13.0416666666667 31.7142857142857  L 15.7083333333333 21.7003348214286  C 15.8055555555556 21.425037202381  15.875 21.1084449404762  15.9166666666667 20.7505580357143  C 15.9444444444444 20.5303199404762  15.9583333333333 20.3651413690476  15.9583333333333 20.2550223214286  L 16.0416666666667 20.2550223214286  L 16.1041666666667 20.7505580357143  C 16.1180555555556 20.7918526785714  16.1423611111111 20.9295014880952  16.1770833333333 21.1635044642857  C 16.2118055555556 21.3975074404762  16.25 21.5764508928571  16.2916666666667 21.7003348214286  L 18.9583333333333 31.7142857142857  L 22.2708333333333 31.7142857142857  L 25.6875 18.06640625  L 27.1458333333333 18.06640625  L 27.1458333333333 15.8571428571429  L 20.8958333333333 15.8571428571429  L 20.8958333333333 18.06640625  L 22.7708333333333 18.06640625  L 20.7083333333333 27.1099330357143  C 20.6388888888889 27.3852306547619  20.5902777777778 27.7018229166667  20.5625 28.0597098214286  L 20.5208333333333 28.4933035714286  L 20.4375 28.4933035714286  C 20.4375 28.4520089285714  20.4340277777778 28.4072730654762  20.4270833333333 28.3590959821429  C 20.4201388888889 28.3109188988095  20.4097222222222 28.255859375  20.3958333333333 28.1939174107143  C 20.3819444444444 28.1319754464286  20.375 28.0872395833333  20.375 28.0597098214286  C 20.3611111111111 27.9908854166667  20.3333333333333 27.8463541666667  20.2916666666667 27.6261160714286  C 20.25 27.4058779761905  20.2152777777778 27.2338169642857  20.1875 27.1099330357143  L 17.1875 15.8571428571429  L 14.8125 15.8571428571429  L 11.8125 27.1099330357143  C 11.7847222222222 27.2338169642857  11.7534722222222 27.4024367559524  11.71875 27.6157924107143  C 11.6840277777778 27.8291480654762  11.6597222222222 27.9771205357143  11.6458333333333 28.0597098214286  L 11.5625 28.4933035714286  L 11.4791666666667 28.4933035714286  L 11.4375 28.0597098214286  C 11.4097222222222 27.7018229166667  11.3611111111111 27.3852306547619  11.2916666666667 27.1099330357143  L 9.22916666666667 18.06640625  L 11.1041666666667 18.06640625  L 11.1041666666667 15.8571428571429  Z " fill-rule="nonzero" fill="#000000" stroke="none" transform="matrix(1 0 0 1 24 26 )" />
  </g>
</svg>