<?xml version="1.0" encoding="utf-8"?>
<svg version="1.1" xmlns:xlink="http://www.w3.org/1999/xlink" width="30px" height="30px" xmlns="http://www.w3.org/2000/svg">
  <g transform="matrix(1 0 0 1 -262 -57 )">
    <path d="M 277 58  C 284.84 58  291 64.16  291 72  C 291 79.84  284.84 86  277 86  C 269.16 86  263 79.84  263 72  C 263 64.16  269.16 58  277 58  Z " fill-rule="nonzero" fill="#ffffff" stroke="none" fill-opacity="0.996078431372549" />
    <path d="M 277 58  C 284.84 58  291 64.16  291 72  C 291 79.84  284.84 86  277 86  C 269.16 86  263 79.84  263 72  C 263 64.16  269.16 58  277 58  Z " stroke-width="2" stroke="#105c55" fill="none" />
  </g>
</svg>