<?xml version="1.0" encoding="utf-8"?>
<svg version="1.1" xmlns:xlink="http://www.w3.org/1999/xlink" width="40px" height="40px" xmlns="http://www.w3.org/2000/svg">
  <g transform="matrix(1 0 0 1 -627 -165 )">
    <path d="M 627 165  L 667 165  L 667 205  L 627 205  L 627 165  " fill-rule="nonzero" fill="#cccccc" stroke="none" />
    <path d="M 630 168  L 664 168  L 664 202  L 630 202  L 630 168  " fill-rule="nonzero" fill="#ffffff" stroke="none" />
    <path d="M 650.8 177  C 649.12 177  647.8 175.68  647.8 174  C 647.8 172.32  649.12 171  650.8 171  C 652.48 171  653.8 172.32  653.8 174  C 653.8 175.68  652.48 177  650.8 177  " fill-rule="nonzero" fill="#cccccc" stroke="none" />
    <path d="M 631 201  L 631 183.4  L 639 175.4  L 650.2 181.8  L 656.6 180.2  L 663 181.8  L 663 201  L 631 201  " fill-rule="nonzero" fill="#169bd5" stroke="none" />
  </g>
</svg>