<?xml version="1.0" encoding="utf-8"?>
<svg version="1.1" xmlns:xlink="http://www.w3.org/1999/xlink" width="72px" height="72px" xmlns="http://www.w3.org/2000/svg">
  <g transform="matrix(1 0 0 1 -1257 -4084 )">
    <path d="M 1289.93164339028 4084.63285157446  C 1290.95195577199 4084.54433207501  1291.97569884216 4084.5  1293 4084.5  C 1312.60610861899 4084.5  1328.5 4100.39389138101  1328.5 4120  C 1328.5 4139.60610861899  1312.60610861899 4155.5  1293 4155.5  C 1273.39389138101 4155.5  1257.5 4139.60610861899  1257.5 4120  C 1257.5 4113.93519765408  1259.05371061054 4107.97438352717  1262.00914695025 4102.68477291851  L 1292.75 4120.43301270189  A 0.5 0.5 0 0 0 1293.49747076072 4119.9497720971 L 1289.93164339024 4084.63285157447  Z " fill-rule="nonzero" fill="#0096fa" stroke="none" />
    <path d="M 1289.93164339028 4084.63285157446  C 1290.95195577199 4084.54433207501  1291.97569884216 4084.5  1293 4084.5  C 1312.60610861899 4084.5  1328.5 4100.39389138101  1328.5 4120  C 1328.5 4139.60610861899  1312.60610861899 4155.5  1293 4155.5  C 1273.39389138101 4155.5  1257.5 4139.60610861899  1257.5 4120  C 1257.5 4113.93519765408  1259.05371061054 4107.97438352717  1262.00914695025 4102.68477291851  L 1292.75 4120.43301270189  A 0.5 0.5 0 0 0 1293.49747076072 4119.9497720971 L 1289.93164339024 4084.63285157447  Z " stroke-width="1" stroke="#ffffff" fill="none" />
  </g>
</svg>