<?xml version="1.0" encoding="utf-8"?>
<svg version="1.1" xmlns:xlink="http://www.w3.org/1999/xlink" width="8px" height="8px" xmlns="http://www.w3.org/2000/svg">
  <g transform="matrix(1 0 0 1 -538 -5410 )">
    <path d="M 542 5410  C 544.24 5410  546 5411.76  546 5414  C 546 5416.24  544.24 5418  542 5418  C 539.76 5418  538 5416.24  538 5414  C 538 5411.76  539.76 5410  542 5410  Z " fill-rule="nonzero" fill="#1890ff" stroke="none" />
    <path d="M 542 5410.5  C 543.96 5410.5  545.5 5412.04  545.5 5414  C 545.5 5415.96  543.96 5417.5  542 5417.5  C 540.04 5417.5  538.5 5415.96  538.5 5414  C 538.5 5412.04  540.04 5410.5  542 5410.5  Z " stroke-width="1" stroke="#ffffff" fill="none" />
  </g>
</svg>