<?xml version="1.0" encoding="utf-8"?>
<svg version="1.1" xmlns:xlink="http://www.w3.org/1999/xlink" width="8px" height="8px" xmlns="http://www.w3.org/2000/svg">
  <g transform="matrix(1 0 0 1 -538 -5446 )">
    <path d="M 542 5446  C 544.24 5446  546 5447.76  546 5450  C 546 5452.24  544.24 5454  542 5454  C 539.76 5454  538 5452.24  538 5450  C 538 5447.76  539.76 5446  542 5446  Z " fill-rule="nonzero" fill="#2fc25b" stroke="none" />
    <path d="M 542 5446.5  C 543.96 5446.5  545.5 5448.04  545.5 5450  C 545.5 5451.96  543.96 5453.5  542 5453.5  C 540.04 5453.5  538.5 5451.96  538.5 5450  C 538.5 5448.04  540.04 5446.5  542 5446.5  Z " stroke-width="1" stroke="#ffffff" fill="none" />
  </g>
</svg>