<?xml version="1.0" encoding="utf-8"?>
<svg version="1.1" xmlns:xlink="http://www.w3.org/1999/xlink" width="218px" height="218px" xmlns="http://www.w3.org/2000/svg">
  <g transform="matrix(1 0 0 1 -952 -5334 )">
    <path d="M 1061.50019265776 5334.50112862529  C 1121.19298605569 5334.77055510597  1169.5 5383.24392372776  1169.5 5443  C 1169.5 5502.92289535664  1120.92289535664 5551.5  1061 5551.5  C 1052.95013799609 5551.5  1044.92579796017 5550.60415288061  1037.07508804875 5548.82933709709  L 1061.48717954062 5443.11249931202  A 0.5 0.5 0 0 0 1061.5 5443 L 1061.50019217197 5334.50112862309  Z " fill-rule="nonzero" fill="#1890ff" stroke="none" />
    <path d="M 1061.50019265776 5334.50112862529  C 1121.19298605569 5334.77055510597  1169.5 5383.24392372776  1169.5 5443  C 1169.5 5502.92289535664  1120.92289535664 5551.5  1061 5551.5  C 1052.95013799609 5551.5  1044.92579796017 5550.60415288061  1037.07508804875 5548.82933709709  L 1061.48717954062 5443.11249931202  A 0.5 0.5 0 0 0 1061.5 5443 L 1061.50019217197 5334.50112862309  Z " stroke-width="1" stroke="#ffffff" fill="none" />
  </g>
</svg>