<?xml version="1.0" encoding="utf-8"?>
<svg version="1.1" xmlns:xlink="http://www.w3.org/1999/xlink" width="8px" height="8px" xmlns="http://www.w3.org/2000/svg">
  <g transform="matrix(1 0 0 1 -984 -6223 )">
    <path d="M 988 6223  C 990.24 6223  992 6224.76  992 6227  C 992 6229.24  990.24 6231  988 6231  C 985.76 6231  984 6229.24  984 6227  C 984 6224.76  985.76 6223  988 6223  Z " fill-rule="nonzero" fill="#ffffff" stroke="none" />
    <path d="M 988 6223.5  C 989.96 6223.5  991.5 6225.04  991.5 6227  C 991.5 6228.96  989.96 6230.5  988 6230.5  C 986.04 6230.5  984.5 6228.96  984.5 6227  C 984.5 6225.04  986.04 6223.5  988 6223.5  Z " stroke-width="1" stroke="#1890ff" fill="none" />
  </g>
</svg>