<?xml version="1.0" encoding="utf-8"?>
<svg version="1.1" xmlns:xlink="http://www.w3.org/1999/xlink" width="15px" height="15px" xmlns="http://www.w3.org/2000/svg">
  <g transform="matrix(1 0 0 1 -801 -6738 )">
    <path d="M 808.5 6738  C 812.7 6738  816 6741.3  816 6745.5  C 816 6749.7  812.7 6753  808.5 6753  C 804.3 6753  801 6749.7  801 6745.5  C 801 6741.3  804.3 6738  808.5 6738  Z " fill-rule="nonzero" fill="#1890ff" stroke="none" fill-opacity="0.298039215686275" />
    <path d="M 808.5 6738.5  C 812.42 6738.5  815.5 6741.58  815.5 6745.5  C 815.5 6749.42  812.42 6752.5  808.5 6752.5  C 804.58 6752.5  801.5 6749.42  801.5 6745.5  C 801.5 6741.58  804.58 6738.5  808.5 6738.5  Z " stroke-width="1" stroke="#1890ff" fill="none" />
  </g>
</svg>