<?xml version="1.0" encoding="utf-8"?>
<svg version="1.1" xmlns:xlink="http://www.w3.org/1999/xlink" width="33px" height="33px" xmlns="http://www.w3.org/2000/svg">
  <g transform="matrix(1 0 0 1 -968 -6641 )">
    <path d="M 984.5 6641  C 993.74 6641  1001 6648.26  1001 6657.5  C 1001 6666.74  993.74 6674  984.5 6674  C 975.26 6674  968 6666.74  968 6657.5  C 968 6648.26  975.26 6641  984.5 6641  Z " fill-rule="nonzero" fill="#1890ff" stroke="none" fill-opacity="0.298039215686275" />
    <path d="M 984.5 6641.5  C 993.46 6641.5  1000.5 6648.54  1000.5 6657.5  C 1000.5 6666.46  993.46 6673.5  984.5 6673.5  C 975.54 6673.5  968.5 6666.46  968.5 6657.5  C 968.5 6648.54  975.54 6641.5  984.5 6641.5  Z " stroke-width="1" stroke="#1890ff" fill="none" />
  </g>
</svg>