<?xml version="1.0" encoding="utf-8"?>
<svg version="1.1" xmlns:xlink="http://www.w3.org/1999/xlink" width="20px" height="20px" xmlns="http://www.w3.org/2000/svg">
  <g transform="matrix(1 0 0 1 -855 -6710 )">
    <path d="M 865 6710  C 870.6 6710  875 6714.4  875 6720  C 875 6725.6  870.6 6730  865 6730  C 859.4 6730  855 6725.6  855 6720  C 855 6714.4  859.4 6710  865 6710  Z " fill-rule="nonzero" fill="#1890ff" stroke="none" fill-opacity="0.298039215686275" />
    <path d="M 865 6710.5  C 870.32 6710.5  874.5 6714.68  874.5 6720  C 874.5 6725.32  870.32 6729.5  865 6729.5  C 859.68 6729.5  855.5 6725.32  855.5 6720  C 855.5 6714.68  859.68 6710.5  865 6710.5  Z " stroke-width="1" stroke="#1890ff" fill="none" />
  </g>
</svg>