<?xml version="1.0" encoding="utf-8"?>
<svg version="1.1" xmlns:xlink="http://www.w3.org/1999/xlink" width="10px" height="10px" xmlns="http://www.w3.org/2000/svg">
  <g transform="matrix(1 0 0 1 -983 -6222 )">
    <path d="M 988 6222  C 990.8 6222  993 6224.2  993 6227  C 993 6229.8  990.8 6232  988 6232  C 985.2 6232  983 6229.8  983 6227  C 983 6224.2  985.2 6222  988 6222  Z " fill-rule="nonzero" fill="#ffffff" stroke="none" fill-opacity="0" />
    <path d="M 988 6222.5  C 990.52 6222.5  992.5 6224.48  992.5 6227  C 992.5 6229.52  990.52 6231.5  988 6231.5  C 985.48 6231.5  983.5 6229.52  983.5 6227  C 983.5 6224.48  985.48 6222.5  988 6222.5  Z " stroke-width="1" stroke="#1890ff" fill="none" />
  </g>
</svg>