<?xml version="1.0" encoding="utf-8"?>
<svg version="1.1" xmlns:xlink="http://www.w3.org/1999/xlink" width="7px" height="7px" xmlns="http://www.w3.org/2000/svg">
  <g transform="matrix(1 0 0 1 -1236 -6768 )">
    <path d="M 1239.5 6768  C 1241.46 6768  1243 6769.54  1243 6771.5  C 1243 6773.46  1241.46 6775  1239.5 6775  C 1237.54 6775  1236 6773.46  1236 6771.5  C 1236 6769.54  1237.54 6768  1239.5 6768  Z " fill-rule="nonzero" fill="#1890ff" stroke="none" />
    <path d="M 1239.5 6768.5  C 1241.18 6768.5  1242.5 6769.82  1242.5 6771.5  C 1242.5 6773.18  1241.18 6774.5  1239.5 6774.5  C 1237.82 6774.5  1236.5 6773.18  1236.5 6771.5  C 1236.5 6769.82  1237.82 6768.5  1239.5 6768.5  Z " stroke-width="1" stroke="#ffffff" fill="none" />
  </g>
</svg>