<?xml version="1.0" encoding="utf-8"?>
<svg version="1.1" xmlns:xlink="http://www.w3.org/1999/xlink" width="8px" height="8px" xmlns="http://www.w3.org/2000/svg">
  <g transform="matrix(1 0 0 1 -435 -7467 )">
    <path d="M 439 7467  C 441.24 7467  443 7468.76  443 7471  C 443 7473.24  441.24 7475  439 7475  C 436.76 7475  435 7473.24  435 7471  C 435 7468.76  436.76 7467  439 7467  Z " fill-rule="nonzero" fill="#ffffff" stroke="none" />
    <path d="M 439 7467.5  C 440.96 7467.5  442.5 7469.04  442.5 7471  C 442.5 7472.96  440.96 7474.5  439 7474.5  C 437.04 7474.5  435.5 7472.96  435.5 7471  C 435.5 7469.04  437.04 7467.5  439 7467.5  Z " stroke-width="1" stroke="#333333" fill="none" />
  </g>
</svg>