<?xml version="1.0" encoding="utf-8"?>
<svg version="1.1" xmlns:xlink="http://www.w3.org/1999/xlink" width="28px" height="28px" xmlns="http://www.w3.org/2000/svg">
  <g transform="matrix(1 0 0 1 -910 -6689 )">
    <path d="M 924 6689  C 931.84 6689  938 6695.16  938 6703  C 938 6710.84  931.84 6717  924 6717  C 916.16 6717  910 6710.84  910 6703  C 910 6695.16  916.16 6689  924 6689  Z " fill-rule="nonzero" fill="#1890ff" stroke="none" fill-opacity="0.298039215686275" />
    <path d="M 924 6689.5  C 931.56 6689.5  937.5 6695.44  937.5 6703  C 937.5 6710.56  931.56 6716.5  924 6716.5  C 916.44 6716.5  910.5 6710.56  910.5 6703  C 910.5 6695.44  916.44 6689.5  924 6689.5  Z " stroke-width="1" stroke="#1890ff" fill="none" />
  </g>
</svg>