<?xml version="1.0" encoding="utf-8"?>
<svg version="1.1" xmlns:xlink="http://www.w3.org/1999/xlink" width="8px" height="8px" xmlns="http://www.w3.org/2000/svg">
  <g transform="matrix(1 0 0 1 -435 -7498 )">
    <path d="M 439 7498  C 441.24 7498  443 7499.76  443 7502  C 443 7504.24  441.24 7506  439 7506  C 436.76 7506  435 7504.24  435 7502  C 435 7499.76  436.76 7498  439 7498  Z " fill-rule="nonzero" fill="#ffffff" stroke="none" />
    <path d="M 439 7498.5  C 440.96 7498.5  442.5 7500.04  442.5 7502  C 442.5 7503.96  440.96 7505.5  439 7505.5  C 437.04 7505.5  435.5 7503.96  435.5 7502  C 435.5 7500.04  437.04 7498.5  439 7498.5  Z " stroke-width="1" stroke="#999999" fill="none" />
  </g>
</svg>