<?xml version="1.0" encoding="utf-8"?>
<svg version="1.1" xmlns:xlink="http://www.w3.org/1999/xlink" width="8px" height="8px" xmlns="http://www.w3.org/2000/svg">
  <g transform="matrix(1 0 0 1 -434 -112 )">
    <path d="M 438 113  C 439.68 113  441 114.32  441 116  C 441 117.68  439.68 119  438 119  C 436.32 119  435 117.68  435 116  C 435 114.32  436.32 113  438 113  Z " fill-rule="nonzero" fill="#ffffff" stroke="none" />
    <path d="M 438 113  C 439.68 113  441 114.32  441 116  C 441 117.68  439.68 119  438 119  C 436.32 119  435 117.68  435 116  C 435 114.32  436.32 113  438 113  Z " stroke-width="2" stroke="#2db7f5" fill="none" />
  </g>
</svg>