<?xml version="1.0" encoding="utf-8"?>
<svg version="1.1" xmlns:xlink="http://www.w3.org/1999/xlink" width="8px" height="8px" xmlns="http://www.w3.org/2000/svg">
  <g transform="matrix(1 0 0 1 -377 -2865 )">
    <path d="M 381 2866  C 382.68 2866  384 2867.32  384 2869  C 384 2870.68  382.68 2872  381 2872  C 379.32 2872  378 2870.68  378 2869  C 378 2867.32  379.32 2866  381 2866  Z " fill-rule="nonzero" fill="#ffffff" stroke="none" />
    <path d="M 381 2866  C 382.68 2866  384 2867.32  384 2869  C 384 2870.68  382.68 2872  381 2872  C 379.32 2872  378 2870.68  378 2869  C 378 2867.32  379.32 2866  381 2866  Z " stroke-width="2" stroke="#4ad2e7" fill="none" />
  </g>
</svg>