<?xml version="1.0" encoding="utf-8"?>
<svg version="1.1" xmlns:xlink="http://www.w3.org/1999/xlink" width="72px" height="72px" xmlns="http://www.w3.org/2000/svg">
  <g transform="matrix(1 0 0 1 -1257 -4084 )">
    <path d="M 1293 4084  C 1313.16 4084  1329 4099.84  1329 4120  C 1329 4140.16  1313.16 4156  1293 4156  C 1272.84 4156  1257 4140.16  1257 4120  C 1257 4099.84  1272.84 4084  1293 4084  Z " fill-rule="nonzero" fill="#e9e9e9" stroke="none" />
    <path d="M 1293 4084.5  C 1312.88 4084.5  1328.5 4100.12  1328.5 4120  C 1328.5 4139.88  1312.88 4155.5  1293 4155.5  C 1273.12 4155.5  1257.5 4139.88  1257.5 4120  C 1257.5 4100.12  1273.12 4084.5  1293 4084.5  Z " stroke-width="1" stroke="#ffffff" fill="none" />
  </g>
</svg>