<?xml version="1.0" encoding="utf-8"?>
<svg version="1.1" xmlns:xlink="http://www.w3.org/1999/xlink" width="44px" height="44px" xmlns="http://www.w3.org/2000/svg">
  <g transform="matrix(1 0 0 1 -1271 -4098 )">
    <path d="M 1293 4098  C 1305.32 4098  1315 4107.68  1315 4120  C 1315 4132.32  1305.32 4142  1293 4142  C 1280.68 4142  1271 4132.32  1271 4120  C 1271 4107.68  1280.68 4098  1293 4098  Z " fill-rule="nonzero" fill="#ffffff" stroke="none" />
    <path d="M 1293 4098.5  C 1305.04 4098.5  1314.5 4107.96  1314.5 4120  C 1314.5 4132.04  1305.04 4141.5  1293 4141.5  C 1280.96 4141.5  1271.5 4132.04  1271.5 4120  C 1271.5 4107.96  1280.96 4098.5  1293 4098.5  Z " stroke-width="1" stroke="#ffffff" fill="none" />
  </g>
</svg>