<?xml version="1.0" encoding="utf-8"?>
<svg version="1.1" xmlns:xlink="http://www.w3.org/1999/xlink" width="8px" height="8px" xmlns="http://www.w3.org/2000/svg">
  <g transform="matrix(1 0 0 1 -434 -174 )">
    <path d="M 438 175  C 439.68 175  441 176.32  441 178  C 441 179.68  439.68 181  438 181  C 436.32 181  435 179.68  435 178  C 435 176.32  436.32 175  438 175  Z " fill-rule="nonzero" fill="#ffffff" stroke="none" />
    <path d="M 438 175  C 439.68 175  441 176.32  441 178  C 441 179.68  439.68 181  438 181  C 436.32 181  435 179.68  435 178  C 435 176.32  436.32 175  438 175  Z " stroke-width="2" stroke="#808bc6" fill="none" />
  </g>
</svg>