<?xml version="1.0" encoding="utf-8"?>
<svg version="1.1" xmlns:xlink="http://www.w3.org/1999/xlink" width="12px" height="12px" viewBox="207 53  12 12" xmlns="http://www.w3.org/2000/svg">
  <path d="M 213 53  C 216.36 53  219 55.64  219 59  C 219 62.36  216.36 65  213 65  C 209.64 65  207 62.36  207 59  C 207 55.64  209.64 53  213 53  Z " fill-rule="nonzero" fill="#ffffff" stroke="none" />
  <path d="M 213 53.5  C 216.08 53.5  218.5 55.92  218.5 59  C 218.5 62.08  216.08 64.5  213 64.5  C 209.92 64.5  207.5 62.08  207.5 59  C 207.5 55.92  209.92 53.5  213 53.5  Z " stroke-width="1" stroke="#797979" fill="none" />
  <path d="M 213 62  C 211.32 62  210 60.68  210 59  C 210 57.32  211.32 56  213 56  C 214.68 56  216 57.32  216 59  C 216 60.68  214.68 62  213 62  " fill-rule="nonzero" fill="#797979" stroke="none" />
</svg>