<?xml version="1.0" encoding="utf-8"?>
<svg version="1.1" xmlns:xlink="http://www.w3.org/1999/xlink" width="12px" height="12px" viewBox="317 53  12 12" xmlns="http://www.w3.org/2000/svg">
  <path d="M 323 53  C 326.36 53  329 55.64  329 59  C 329 62.36  326.36 65  323 65  C 319.64 65  317 62.36  317 59  C 317 55.64  319.64 53  323 53  Z " fill-rule="nonzero" fill="#f0f0f0" stroke="none" />
  <path d="M 323 53.5  C 326.08 53.5  328.5 55.92  328.5 59  C 328.5 62.08  326.08 64.5  323 64.5  C 319.92 64.5  317.5 62.08  317.5 59  C 317.5 55.92  319.92 53.5  323 53.5  Z " stroke-width="1" stroke="#797979" fill="none" />
  <path d="M 323 62  C 321.32 62  320 60.68  320 59  C 320 57.32  321.32 56  323 56  C 324.68 56  326 57.32  326 59  C 326 60.68  324.68 62  323 62  " fill-rule="nonzero" fill="#797979" stroke="none" />
</svg>