<?xml version="1.0" encoding="utf-8"?>
<svg version="1.1" xmlns:xlink="http://www.w3.org/1999/xlink" width="12px" height="12px" viewBox="124 53  12 12" xmlns="http://www.w3.org/2000/svg">
  <path d="M 130 53  C 133.36 53  136 55.64  136 59  C 136 62.36  133.36 65  130 65  C 126.64 65  124 62.36  124 59  C 124 55.64  126.64 53  130 53  Z " fill-rule="nonzero" fill="#f0f0f0" stroke="none" />
  <path d="M 130 53.5  C 133.08 53.5  135.5 55.92  135.5 59  C 135.5 62.08  133.08 64.5  130 64.5  C 126.92 64.5  124.5 62.08  124.5 59  C 124.5 55.92  126.92 53.5  130 53.5  Z " stroke-width="1" stroke="#797979" fill="none" />
  <path d="M 130 62  C 128.32 62  127 60.68  127 59  C 127 57.32  128.32 56  130 56  C 131.68 56  133 57.32  133 59  C 133 60.68  131.68 62  130 62  " fill-rule="nonzero" fill="#797979" stroke="none" />
</svg>