<?xml version="1.0" encoding="utf-8"?>
<svg version="1.1" xmlns:xlink="http://www.w3.org/1999/xlink" width="348px" height="280px" xmlns="http://www.w3.org/2000/svg">
  <g transform="matrix(1 0 0 1 -86 -578 )">
    <path d="M 155 21.5384615384614  L 155 149.759615384615  L 264.625 241.634615384615  C 250.393518518519 253.75  233.778935185185 263.173076923077  214.78125 269.903846153846  C 195.783564814815 276.634615384615  175.74537037037 280  154.666666666667 280  C 126.606481481481 280  100.728009259259 274.222756410256  77.03125 262.668269230769  C 53.3344907407407 251.113782051282  34.5717592592593 235.436698717949  20.7430555555555 215.637019230769  C 6.91435185185185 195.83733974359  0 174.214743589744  0 150.769230769231  C 0 127.323717948718  6.91435185185185 105.701121794872  20.7430555555555 85.9014423076923  C 34.5717592592593 66.1017628205128  53.3344907407407 50.4246794871796  77.03125 38.8701923076923  C 100.728009259259 27.3157051282052  126.606481481481 21.5384615384614  155 21.5384615384614  Z M 302.083333333333 242.644230769231  L 192.326388888889 150  L 348 150  C 348 168.38141025641  343.972222222222 185.124198717949  335.916666666667 200.997596153846  C 327.861111111111 216.870993589744  316.583333333333 230.753205128205  302.083333333333 242.644230769231  Z M 314.368055555556 64.3629807692307  C 328.196759259259 84.1626602564103  335.111111111111 105.785256410256  335.111111111111 130  L 180 130  L 180 0  C 208.50462962963 0  234.383101851852 5.77724358974365  258.079861111111 17.3317307692307  C 281.77662037037 28.8862179487179  300.539351851852 44.5633012820512  314.368055555556 64.3629807692307  Z " fill-rule="nonzero" fill="#000000" stroke="none" transform="matrix(1 0 0 1 86 578 )" />
  </g>
</svg>