<?xml version="1.0" encoding="utf-8"?>
<svg version="1.1" xmlns:xlink="http://www.w3.org/1999/xlink" width="358px" height="238px" xmlns="http://www.w3.org/2000/svg">
  <g transform="matrix(1 0 0 1 -619 -229 )">
    <path d="M 68 119  L 112 119  L 112 198  L 68 198  L 68 119  Z M 135 40  L 179 40  L 179 198  L 135 198  L 135 40  Z M 23 218  L 358 218  L 358 238  L 0 238  L 0 0  L 23 0  L 23 218  Z M 201 80  L 246 80  L 246 198  L 201 198  L 201 80  Z M 268 20  L 313 20  L 313 198  L 268 198  L 268 20  Z " fill-rule="nonzero" fill="#000000" stroke="none" transform="matrix(1 0 0 1 619 229 )" />
  </g>
</svg>