<?xml version="1.0" encoding="utf-8"?>
<svg version="1.1" xmlns:xlink="http://www.w3.org/1999/xlink" width="358px" height="244px" xmlns="http://www.w3.org/2000/svg">
  <g transform="matrix(1 0 0 1 -71 -229 )">
    <path d="M 68 122  L 112 122  L 112 203  L 68 203  L 68 122  Z M 135 41  L 179 41  L 179 203  L 135 203  L 135 41  Z M 23 223  L 358 223  L 358 244  L 0 244  L 0 0  L 23 0  L 23 223  Z M 201 82  L 246 82  L 246 203  L 201 203  L 201 82  Z M 268 21  L 313 21  L 313 203  L 268 203  L 268 21  Z " fill-rule="nonzero" fill="#000000" stroke="none" transform="matrix(1 0 0 1 71 229 )" />
  </g>
</svg>