<?xml version="1.0" encoding="utf-8"?>
<svg version="1.1" xmlns:xlink="http://www.w3.org/1999/xlink" width="457px" height="209px" xmlns="http://www.w3.org/2000/svg">
  <g transform="matrix(1 0 0 1 -36 -1413 )">
    <path d="M 36 1413  L 493 1413  L 493 1622  L 36 1622  L 36 1413  " fill-rule="nonzero" fill="#cccccc" stroke="none" />
    <path d="M 51 1428  L 478 1428  L 478 1607  L 51 1607  L 51 1428  " fill-rule="nonzero" fill="#ffffff" stroke="none" />
    <path d="M 289.315 1475.7  C 280.537 1475.7  273.64 1468.803  273.64 1460.025  C 273.64 1451.247  280.537 1444.35  289.315 1444.35  C 298.093 1444.35  304.99 1451.247  304.99 1460.025  C 304.99 1468.803  298.093 1475.7  289.315 1475.7  " fill-rule="nonzero" fill="#cccccc" stroke="none" />
    <path d="M 56 1602  L 56 1509.05  L 160.25 1466.8  L 306.2 1555.62669584245  L 389.6 1492.15  L 473 1555.62669584245  L 473 1602  L 56 1602  " fill-rule="nonzero" fill="#169bd5" stroke="none" />
  </g>
</svg>