<?xml version="1.0" encoding="utf-8"?>
<svg version="1.1" xmlns:xlink="http://www.w3.org/1999/xlink" width="26px" height="19px" xmlns="http://www.w3.org/2000/svg">
  <g transform="matrix(1 0 0 1 -335 -130 )">
    <path d="M 348 130  C 355.28 130  361 134.18  361 139.5  C 361 144.82  355.28 149  348 149  C 340.72 149  335 144.82  335 139.5  C 335 134.18  340.72 130  348 130  Z " fill-rule="nonzero" fill="#d9001b" stroke="none" />
    <path d="M 348 130.5  C 355 130.5  360.5 134.46  360.5 139.5  C 360.5 144.54  355 148.5  348 148.5  C 341 148.5  335.5 144.54  335.5 139.5  C 335.5 134.46  341 130.5  348 130.5  Z " stroke-width="1" stroke="#797979" fill="none" />
  </g>
</svg>