<?xml version="1.0" encoding="utf-8"?>
<svg version="1.1" xmlns:xlink="http://www.w3.org/1999/xlink" width="24px" height="20px" xmlns="http://www.w3.org/2000/svg">
  <g transform="matrix(1 0 0 1 -538 -130 )">
    <path d="M 550 130  C 556.72 130  562 134.4  562 140  C 562 145.6  556.72 150  550 150  C 543.28 150  538 145.6  538 140  C 538 134.4  543.28 130  550 130  Z " fill-rule="nonzero" fill="#d9001b" stroke="none" />
    <path d="M 550 130.5  C 556.44 130.5  561.5 134.68  561.5 140  C 561.5 145.32  556.44 149.5  550 149.5  C 543.56 149.5  538.5 145.32  538.5 140  C 538.5 134.68  543.56 130.5  550 130.5  Z " stroke-width="1" stroke="#797979" fill="none" />
  </g>
</svg>