<?xml version="1.0" encoding="utf-8"?>
<svg version="1.1" xmlns:xlink="http://www.w3.org/1999/xlink" width="26px" height="20px" xmlns="http://www.w3.org/2000/svg">
  <g transform="matrix(1 0 0 1 -336 -140 )">
    <path d="M 349 140  C 356.28 140  362 144.4  362 150  C 362 155.6  356.28 160  349 160  C 341.72 160  336 155.6  336 150  C 336 144.4  341.72 140  349 140  Z " fill-rule="nonzero" fill="#d9001b" stroke="none" />
    <path d="M 349 140.5  C 356 140.5  361.5 144.68  361.5 150  C 361.5 155.32  356 159.5  349 159.5  C 342 159.5  336.5 155.32  336.5 150  C 336.5 144.68  342 140.5  349 140.5  Z " stroke-width="1" stroke="#797979" fill="none" />
  </g>
</svg>