<?xml version="1.0" encoding="utf-8"?>
<svg version="1.1" xmlns:xlink="http://www.w3.org/1999/xlink" width="24px" height="20px" xmlns="http://www.w3.org/2000/svg">
  <g transform="matrix(1 0 0 1 -336 -140 )">
    <path d="M 348 140  C 354.72 140  360 144.4  360 150  C 360 155.6  354.72 160  348 160  C 341.28 160  336 155.6  336 150  C 336 144.4  341.28 140  348 140  Z " fill-rule="nonzero" fill="#d9001b" stroke="none" />
    <path d="M 348 140.5  C 354.44 140.5  359.5 144.68  359.5 150  C 359.5 155.32  354.44 159.5  348 159.5  C 341.56 159.5  336.5 155.32  336.5 150  C 336.5 144.68  341.56 140.5  348 140.5  Z " stroke-width="1" stroke="#797979" fill="none" />
  </g>
</svg>