<?xml version="1.0" encoding="utf-8"?>
<svg version="1.1" xmlns:xlink="http://www.w3.org/1999/xlink" width="24px" height="20px" xmlns="http://www.w3.org/2000/svg">
  <g transform="matrix(1 0 0 1 -435 -139 )">
    <path d="M 447 139  C 453.72 139  459 143.4  459 149  C 459 154.6  453.72 159  447 159  C 440.28 159  435 154.6  435 149  C 435 143.4  440.28 139  447 139  Z " fill-rule="nonzero" fill="#d9001b" stroke="none" />
    <path d="M 447 139.5  C 453.44 139.5  458.5 143.68  458.5 149  C 458.5 154.32  453.44 158.5  447 158.5  C 440.56 158.5  435.5 154.32  435.5 149  C 435.5 143.68  440.56 139.5  447 139.5  Z " stroke-width="1" stroke="#797979" fill="none" />
  </g>
</svg>