<?xml version="1.0" encoding="utf-8"?>
<svg version="1.1" xmlns:xlink="http://www.w3.org/1999/xlink" width="26px" height="20px" xmlns="http://www.w3.org/2000/svg">
  <defs>
    <mask fill="white" id="clip415">
      <path d="M 0 10  C 0 5.25467167894502  4.10726294013871 1.37100691176528  9.79057957991483 0.296089729615602  C 10.8141904759073 0.102488526360929  11.8889268173715 0  13 0  C 20.28 0  26 4.40000000000001  26 10  C 26 15.6  20.28 20  13 20  C 5.71999999999997 20  0 15.6  0 10  Z " fill-rule="evenodd" />
    </mask>
  </defs>
  <g transform="matrix(1 0 0 1 -336 -140 )">
    <path d="M 0 10  C 0 5.25467167894502  4.10726294013871 1.37100691176528  9.79057957991483 0.296089729615602  C 10.8141904759073 0.102488526360929  11.8889268173715 0  13 0  C 20.28 0  26 4.40000000000001  26 10  C 26 15.6  20.28 20  13 20  C 5.71999999999997 20  0 15.6  0 10  Z " fill-rule="nonzero" fill="#d9001b" stroke="none" transform="matrix(1 0 0 1 336 140 )" />
    <path d="M 0 10  C 0 5.25467167894502  4.10726294013871 1.37100691176528  9.79057957991483 0.296089729615602  C 10.8141904759073 0.102488526360929  11.8889268173715 0  13 0  C 20.28 0  26 4.40000000000001  26 10  C 26 15.6  20.28 20  13 20  C 5.71999999999997 20  0 15.6  0 10  Z " stroke-width="2" stroke="#797979" fill="none" transform="matrix(1 0 0 1 336 140 )" mask="url(#clip415)" />
  </g>
</svg>