<?xml version="1.0" encoding="utf-8"?>
<svg version="1.1" xmlns:xlink="http://www.w3.org/1999/xlink" width="93px" height="40px" xmlns="http://www.w3.org/2000/svg">
  <g transform="matrix(1 0 0 1 -300 -305 )">
    <path d="M 300 305  L 393 305  L 393 345  L 300 345  L 300 305  " fill-rule="nonzero" fill="#cccccc" stroke="none" />
    <path d="M 303 308  L 390 308  L 390 342  L 303 342  L 303 308  " fill-rule="nonzero" fill="#ffffff" stroke="none" />
    <path d="M 351.36 317  C 349.68 317  348.36 315.68  348.36 314  C 348.36 312.32  349.68 311  351.36 311  C 353.04 311  354.36 312.32  354.36 314  C 354.36 315.68  353.04 317  351.36 317  " fill-rule="nonzero" fill="#cccccc" stroke="none" />
    <path d="M 304 341  L 304 323.4  L 325.25 315.4  L 355 332.741935483871  L 372 320.2  L 389 332.741935483871  L 389 341  L 304 341  " fill-rule="nonzero" fill="#169bd5" stroke="none" />
  </g>
</svg>