<?xml version="1.0" encoding="utf-8"?>
<svg version="1.1" xmlns:xlink="http://www.w3.org/1999/xlink" width="93px" height="40px" xmlns="http://www.w3.org/2000/svg">
  <g transform="matrix(1 0 0 1 -516 -125 )">
    <path d="M 516 125  L 609 125  L 609 165  L 516 165  L 516 125  " fill-rule="nonzero" fill="#cccccc" stroke="none" />
    <path d="M 519 128  L 606 128  L 606 162  L 519 162  L 519 128  " fill-rule="nonzero" fill="#ffffff" stroke="none" />
    <path d="M 567.36 137  C 565.68 137  564.36 135.68  564.36 134  C 564.36 132.32  565.68 131  567.36 131  C 569.04 131  570.36 132.32  570.36 134  C 570.36 135.68  569.04 137  567.36 137  " fill-rule="nonzero" fill="#cccccc" stroke="none" />
    <path d="M 520 161  L 520 143.4  L 541.25 135.4  L 571 152.741935483871  L 588 140.2  L 605 152.741935483871  L 605 161  L 520 161  " fill-rule="nonzero" fill="#169bd5" stroke="none" />
  </g>
</svg>