<?xml version="1.0" encoding="utf-8"?>
<svg version="1.1" xmlns:xlink="http://www.w3.org/1999/xlink" width="93px" height="40px" xmlns="http://www.w3.org/2000/svg">
  <g transform="matrix(1 0 0 1 -418 -165 )">
    <path d="M 418 165  L 511 165  L 511 205  L 418 205  L 418 165  " fill-rule="nonzero" fill="#cccccc" stroke="none" />
    <path d="M 421 168  L 508 168  L 508 202  L 421 202  L 421 168  " fill-rule="nonzero" fill="#ffffff" stroke="none" />
    <path d="M 469.36 177  C 467.68 177  466.36 175.68  466.36 174  C 466.36 172.32  467.68 171  469.36 171  C 471.04 171  472.36 172.32  472.36 174  C 472.36 175.68  471.04 177  469.36 177  " fill-rule="nonzero" fill="#cccccc" stroke="none" />
    <path d="M 422 201  L 422 183.4  L 443.25 175.4  L 473 192.741935483871  L 490 180.2  L 507 192.741935483871  L 507 201  L 422 201  " fill-rule="nonzero" fill="#169bd5" stroke="none" />
  </g>
</svg>