<?xml version="1.0" encoding="utf-8"?>
<svg version="1.1" xmlns:xlink="http://www.w3.org/1999/xlink" width="419px" height="190px" xmlns="http://www.w3.org/2000/svg">
  <g transform="matrix(1 0 0 1 -230 -958 )">
    <path d="M 230 958  L 649 958  L 649 1148  L 230 1148  L 230 958  " fill-rule="nonzero" fill="#cccccc" stroke="none" />
    <path d="M 243 971  L 636 971  L 636 1135  L 243 1135  L 243 971  " fill-rule="nonzero" fill="#ffffff" stroke="none" />
    <path d="M 462.13 1015  C 454.15 1015  447.88 1008.73  447.88 1000.75  C 447.88 992.77  454.15 986.5  462.13 986.5  C 470.11 986.5  476.38 992.77  476.38 1000.75  C 476.38 1008.73  470.11 1015  462.13 1015  " fill-rule="nonzero" fill="#cccccc" stroke="none" />
    <path d="M 248 1130  L 248 1045.3  L 343.75 1006.8  L 477.8 1088.10023866348  L 554.4 1029.9  L 631 1088.10023866348  L 631 1130  L 248 1130  " fill-rule="nonzero" fill="#169bd5" stroke="none" />
  </g>
</svg>