<?xml version="1.0" encoding="utf-8"?>
<svg version="1.1" xmlns:xlink="http://www.w3.org/1999/xlink" width="17px" height="22px" xmlns="http://www.w3.org/2000/svg">
  <g transform="matrix(1 0 0 1 -1342 -936 )">
    <path d="M 16.5993265993266 16.4444444444444  C 16.8664421997755 16.7901234567901  17 17.2098765432099  17 17.7037037037037  C 17 18.1975308641975  16.8664421997755 18.6172839506173  16.5993265993266 18.962962962963  L 14.6531986531987 21.4814814814815  C 14.3860830527497 21.8271604938272  14.0617283950617 22  13.6801346801347 22  C 13.2985409652076 22  12.9741863075196 21.8271604938272  12.7070707070707 21.4814814814815  L 8.5 16.037037037037  L 4.29292929292929 21.4814814814815  C 4.02581369248036 21.8271604938272  3.70145903479237 22  3.31986531986532 22  C 2.93827160493827 22  2.61391694725028 21.8271604938272  2.34680134680135 21.4814814814815  L 0.400673400673401 18.962962962963  C 0.133557800224467 18.6172839506173  0 18.1975308641975  0 17.7037037037037  C 0 17.2098765432099  0.133557800224467 16.7901234567901  0.400673400673401 16.4444444444444  L 4.60774410774411 11  L 0.400673400673401 5.55555555555555  C 0.133557800224467 5.20987654320987  0 4.79012345679012  0 4.2962962962963  C 0 3.80246913580247  0.133557800224467 3.38271604938271  0.400673400673401 3.03703703703704  L 2.34680134680135 0.518518518518519  C 2.61391694725028 0.172839506172839  2.93827160493827 0  3.31986531986532 0  C 3.70145903479237 0  4.02581369248036 0.172839506172839  4.29292929292929 0.518518518518519  L 8.5 5.96296296296296  L 12.7070707070707 0.518518518518519  C 12.9741863075196 0.172839506172839  13.2985409652076 0  13.6801346801347 0  C 14.0617283950617 0  14.3860830527497 0.172839506172839  14.6531986531987 0.518518518518519  L 16.5993265993266 3.03703703703704  C 16.8664421997755 3.38271604938271  17 3.80246913580247  17 4.2962962962963  C 17 4.79012345679012  16.8664421997755 5.20987654320987  16.5993265993266 5.55555555555555  L 12.3922558922559 11  L 16.5993265993266 16.4444444444444  Z " fill-rule="nonzero" fill="#000000" stroke="none" transform="matrix(1 0 0 1 1342 936 )" />
  </g>
</svg>