<?xml version="1.0" encoding="utf-8"?>
<svg version="1.1" xmlns:xlink="http://www.w3.org/1999/xlink" width="21px" height="22px" xmlns="http://www.w3.org/2000/svg">
  <g transform="matrix(1 0 0 1 -1215 -317 )">
    <path d="M 20.5050505050505 16.4444444444444  C 20.8350168350168 16.7901234567901  21 17.2098765432099  21 17.7037037037037  C 21 18.1975308641975  20.8350168350168 18.6172839506173  20.5050505050505 18.962962962963  L 18.1010101010101 21.4814814814815  C 17.7710437710438 21.8271604938272  17.3703703703704 22  16.8989898989899 22  C 16.4276094276094 22  16.026936026936 21.8271604938272  15.6969696969697 21.4814814814815  L 10.5 16.037037037037  L 5.3030303030303 21.4814814814815  C 4.97306397306397 21.8271604938272  4.57239057239057 22  4.1010101010101 22  C 3.62962962962963 22  3.22895622895623 21.8271604938272  2.8989898989899 21.4814814814815  L 0.494949494949495 18.962962962963  C 0.164983164983165 18.6172839506173  0 18.1975308641975  0 17.7037037037037  C 0 17.2098765432099  0.164983164983165 16.7901234567901  0.494949494949495 16.4444444444444  L 5.69191919191919 11  L 0.494949494949495 5.55555555555555  C 0.164983164983165 5.20987654320987  0 4.79012345679012  0 4.2962962962963  C 0 3.80246913580247  0.164983164983165 3.38271604938271  0.494949494949495 3.03703703703704  L 2.8989898989899 0.518518518518519  C 3.22895622895623 0.172839506172839  3.62962962962963 0  4.1010101010101 0  C 4.57239057239057 0  4.97306397306397 0.172839506172839  5.3030303030303 0.518518518518519  L 10.5 5.96296296296296  L 15.6969696969697 0.518518518518519  C 16.026936026936 0.172839506172839  16.4276094276094 0  16.8989898989899 0  C 17.3703703703704 0  17.7710437710438 0.172839506172839  18.1010101010101 0.518518518518519  L 20.5050505050505 3.03703703703704  C 20.8350168350168 3.38271604938271  21 3.80246913580247  21 4.2962962962963  C 21 4.79012345679012  20.8350168350168 5.20987654320987  20.5050505050505 5.55555555555555  L 15.3080808080808 11  L 20.5050505050505 16.4444444444444  Z " fill-rule="nonzero" fill="#000000" stroke="none" transform="matrix(1 0 0 1 1215 317 )" />
  </g>
</svg>