<?xml version="1.0" encoding="utf-8"?>
<svg version="1.1" xmlns:xlink="http://www.w3.org/1999/xlink" width="12px" height="12px" viewBox="211 426.5  12 12" xmlns="http://www.w3.org/2000/svg">
  <path d="M 217 426.5  C 220.36 426.5  223 429.14  223 432.5  C 223 435.86  220.36 438.5  217 438.5  C 213.64 438.5  211 435.86  211 432.5  C 211 429.14  213.64 426.5  217 426.5  Z " fill-rule="nonzero" fill="#f0f0f0" stroke="none" />
  <path d="M 217 427  C 220.08 427  222.5 429.42  222.5 432.5  C 222.5 435.58  220.08 438  217 438  C 213.92 438  211.5 435.58  211.5 432.5  C 211.5 429.42  213.92 427  217 427  Z " stroke-width="1" stroke="#797979" fill="none" />
  <path d="M 217 435.5  C 215.32 435.5  214 434.18  214 432.5  C 214 430.82  215.32 429.5  217 429.5  C 218.68 429.5  220 430.82  220 432.5  C 220 434.18  218.68 435.5  217 435.5  " fill-rule="nonzero" fill="#797979" stroke="none" />
</svg>