<?xml version="1.0" encoding="utf-8"?>
<svg version="1.1" xmlns:xlink="http://www.w3.org/1999/xlink" width="26px" height="20px" xmlns="http://www.w3.org/2000/svg">
  <g transform="matrix(1 0 0 1 -217 -468 )">
    <path d="M 230 468  C 237.28 468  243 472.4  243 478  C 243 483.6  237.28 488  230 488  C 222.72 488  217 483.6  217 478  C 217 472.4  222.72 468  230 468  Z " fill-rule="nonzero" fill="#d9001b" stroke="none" />
    <path d="M 230 468.5  C 237 468.5  242.5 472.68  242.5 478  C 242.5 483.32  237 487.5  230 487.5  C 223 487.5  217.5 483.32  217.5 478  C 217.5 472.68  223 468.5  230 468.5  Z " stroke-width="1" stroke="#797979" fill="none" />
  </g>
</svg>