<?xml version="1.0" encoding="utf-8"?>
<svg version="1.1" xmlns:xlink="http://www.w3.org/1999/xlink" width="24px" height="22px" xmlns="http://www.w3.org/2000/svg">
  <g transform="matrix(1 0 0 1 -427 -466 )">
    <path d="M 439 466  C 445.72 466  451 470.84  451 477  C 451 483.16  445.72 488  439 488  C 432.28 488  427 483.16  427 477  C 427 470.84  432.28 466  439 466  Z " fill-rule="nonzero" fill="#d9001b" stroke="none" />
    <path d="M 439 466.5  C 445.44 466.5  450.5 471.12  450.5 477  C 450.5 482.88  445.44 487.5  439 487.5  C 432.56 487.5  427.5 482.88  427.5 477  C 427.5 471.12  432.56 466.5  439 466.5  Z " stroke-width="1" stroke="#797979" fill="none" />
  </g>
</svg>