<?xml version="1.0" encoding="utf-8"?>
<svg version="1.1" xmlns:xlink="http://www.w3.org/1999/xlink" width="26px" height="20px" xmlns="http://www.w3.org/2000/svg">
  <g transform="matrix(1 0 0 1 -336 -129 )">
    <path d="M 349 129  C 356.28 129  362 133.4  362 139  C 362 144.6  356.28 149  349 149  C 341.72 149  336 144.6  336 139  C 336 133.4  341.72 129  349 129  Z " fill-rule="nonzero" fill="#d9001b" stroke="none" />
    <path d="M 349 129.5  C 356 129.5  361.5 133.68  361.5 139  C 361.5 144.32  356 148.5  349 148.5  C 342 148.5  336.5 144.32  336.5 139  C 336.5 133.68  342 129.5  349 129.5  Z " stroke-width="1" stroke="#797979" fill="none" />
  </g>
</svg>